<?xml version="1.0" encoding="utf-8"?>
<!-- Generator: Adobe Illustrator 19.0.0, SVG Export Plug-In . SVG Version: 6.00 Build 0)  -->
<svg version="1.2" baseProfile="tiny" id="Layer_1" xmlns="http://www.w3.org/2000/svg" xmlns:xlink="http://www.w3.org/1999/xlink"
	 x="0px" y="0px" viewBox="0 0 254 254" xml:space="preserve">
<g>
	<path fill="#BB63DC" d="M0.6153,135.383c1.8516,28.7454,13.2916,54.8767,31.1613,75.2299
		c-6.9851-12.0241-11.5011-25.0867-13.5497-38.4562C10.2218,161.2545,4.1784,148.8246,0.6153,135.383z"/>
	<path fill="#E2B47C" d="M44.0401,222.8107c20.2675,17.5754,46.177,28.8094,74.6462,30.6431
		c-13.1833-3.4946-25.3938-9.3749-36.144-17.1522C69.1595,234.2769,56.0819,229.7798,44.0401,222.8107z"/>
	<path fill="#D79976" d="M51.7684,202.3008c-13.1544-7.6425-24.5762-17.9343-33.5415-30.144
		c2.0486,13.3695,6.5646,26.4321,13.5497,38.4562c3.808,4.3372,7.9028,8.4161,12.2635,12.1978
		c12.0417,6.9691,25.1194,11.4662,38.5022,13.4909C70.0564,227.2686,59.542,215.6808,51.7684,202.3008z"/>
	<path fill="#F6DC4A" d="M135.9918,253.4037c28.4351-2.0082,54.2742-13.4051,74.4412-31.1113
		c-11.7933,6.851-24.5854,11.3271-37.6868,13.4293C161.8546,243.7502,149.4303,249.8163,135.9918,253.4037z"/>
	<path fill="#EAC244" d="M155.2289,237.1246c-9.1597,0-18.3176-1.1445-27.2473-3.4184c-9.4487,2.5626-19.1716,3.8457-28.8938,3.8457
		c-5.5327,0-11.064-0.4211-16.5454-1.2503c10.7502,7.7773,22.9607,13.6576,36.144,17.1522c2.731,0.1759,5.4828,0.2752,8.2582,0.2752
		c3.0426,0,6.0583-0.1141,9.0472-0.3252c13.4385-3.5875,25.8628-9.6535,36.7544-17.682
		C166.9469,236.6523,161.0882,237.1246,155.2289,237.1246z"/>
	<path fill="#E5B542" d="M75.93,212.6837c-8.5294-2.5021-16.6294-6.0067-24.1616-10.3829
		c7.7736,13.3801,18.288,24.9678,30.7739,34.0008c5.4814,0.8292,11.0127,1.2503,16.5454,1.2503
		c9.7222,0,19.4451-1.2831,28.8938-3.8457c-8.7715-2.2335-17.3198-5.5637-25.4298-9.9911
		C93.063,221.3263,84.1168,217.5756,75.93,212.6837z"/>
	<path fill="#B4DC5A" d="M222.1127,210.6128c17.8695-20.3532,29.3096-46.4844,31.1611-75.2298
		c-3.5631,13.4415-9.6064,25.8715-17.6116,36.7737C233.6136,185.5262,229.0978,198.5887,222.1127,210.6128z"/>
	<path fill="#B2D63B" d="M235.6622,172.1567c-8.7545,11.9228-19.853,22.0143-32.6184,29.5984
		c-7.6398,13.3256-17.991,24.8953-30.2976,33.9667c13.1013-2.1022,25.8934-6.5783,37.6868-13.4293
		c4.1416-3.6363,8.0435-7.538,11.6797-11.6796C229.0978,198.5887,233.6136,185.5262,235.6622,172.1567z"/>
	<path fill="#ACC939" d="M153.5997,223.1162c-8.1477,4.6536-16.761,8.1877-25.6182,10.59
		c8.9297,2.2739,18.0876,3.4184,27.2473,3.4184c5.8594,0,11.718-0.4723,17.5173-1.4028
		c12.3066-9.0714,22.6578-20.6411,30.2976-33.9667c-7.7928,4.6298-16.2052,8.3239-25.0847,10.9286
		C170.426,217.1849,162.2499,220.7193,153.5997,223.1162z"/>
	<path fill="#AAC338" d="M126.9446,226.7289c-8.4161,0-16.5867-1.0486-24.3928-3.0139c8.11,4.4274,16.6583,7.7576,25.4298,9.9911
		c8.8572-2.4023,17.4705-5.9363,25.6182-10.59C145.1151,225.4672,136.1776,226.7289,126.9446,226.7289z"/>
	<path fill="#94DC61" d="M253.2738,118.866c-1.8516-28.7452-13.2915-54.8764-31.1611-75.2296
		c6.9851,12.024,11.501,25.0864,13.5496,38.4557C243.6673,92.9944,249.7107,105.4245,253.2738,118.866z"/>
	<path fill="#92D642" d="M233.2599,127.1246c3.8975,14.7055,4.6965,30.0592,2.4023,45.0321
		c8.0051-10.9022,14.0485-23.3322,17.6116-36.7737c0.1758-2.731,0.2751-5.483,0.2751-8.2584c0-2.7755-0.0994-5.5275-0.2751-8.2585
		c-3.5631-13.4415-9.6064-25.8716-17.6116-36.7738C237.9564,97.0652,237.1573,112.4189,233.2599,127.1246z"/>
	<path fill="#91D334" d="M233.2599,127.1246c-2.2286,8.4085-5.4719,16.6025-9.7249,24.3929
		c-2.1938,8.7142-5.5361,16.9709-9.8562,24.6022c-2.4707,9.064-6.0651,17.6643-10.635,25.6354
		c12.7654-7.5841,23.8639-17.6756,32.6184-29.5984C237.9564,157.1838,237.1573,141.8301,233.2599,127.1246z"/>
	<path fill="#8ECD33" d="M177.9591,212.6837c8.8795-2.6047,17.2919-6.2988,25.0847-10.9286
		c4.5699-7.9711,8.1643-16.5714,10.635-25.6354C205.1481,191.1887,192.8055,203.8124,177.9591,212.6837z"/>
	<path fill="#79ADDF" d="M31.7766,43.6362C13.2771,64.7068,1.6678,91.97,0.4553,121.9152
		c3.3245-14.1772,9.3905-27.2975,17.6095-38.772C20.0343,69.4075,24.6085,55.9753,31.7766,43.6362z"/>
	<path fill="#6E94D9" d="M20.6293,127.1245c-3.8062-14.3615-4.6636-29.3418-2.5645-43.9813
		c-8.219,11.4745-14.285,24.5948-17.6095,38.772c-0.0699,1.7286-0.1151,3.4636-0.1151,5.2094c0,2.7755,0.0994,5.5274,0.2751,8.2584
		c3.5631,13.4416,9.6064,25.8715,17.6116,36.7737C15.9327,157.1838,16.7318,141.8301,20.6293,127.1245z"/>
	<path fill="#7CAEA6" d="M30.3541,151.5175c-4.2529-7.7903-7.4962-15.9845-9.7249-24.393
		c-3.8975,14.7056-4.6965,30.0593-2.4023,45.0322c8.9653,12.2098,20.3871,22.5016,33.5415,30.144
		c-4.3762-7.5325-7.881-15.6323-10.3831-24.1618C36.4935,169.9523,32.7429,161.0062,30.3541,151.5175z"/>
	<path fill="#83BC8D" d="M41.3854,178.139c2.5021,8.5295,6.0068,16.6293,10.3831,24.1618
		c7.5322,4.3762,15.6322,7.8808,24.1616,10.3829C61.7518,204.2116,49.8574,192.3172,41.3854,178.139z"/>
	<path fill="#6DD6B7" d="M210.4281,31.9523c-20.3525-17.8671-46.4817-29.3054-75.2247-31.1569
		c13.4404,3.5629,25.8695,9.6055,36.7711,17.6097C185.3436,20.4524,198.4046,24.9676,210.4281,31.9523z"/>
	<path fill="#5BD09C" d="M202.1208,51.9483c13.1544,7.6425,24.576,17.9341,33.5414,30.1439
		c-2.0486-13.3694-6.5645-26.4318-13.5496-38.4557c-3.6377-4.1434-7.541-8.0467-11.6846-11.6842
		c-12.0234-6.9846-25.0845-11.4999-38.4536-13.5471C184.1853,27.3707,194.4779,38.793,202.1208,51.9483z"/>
	<path fill="#5ACD8D" d="M223.535,102.7316c4.2529,7.7903,7.4962,15.9845,9.7249,24.393
		c3.8975-14.7056,4.6965-30.0593,2.4023-45.0323c-8.9653-12.2098-20.387-22.5015-33.5414-30.1439
		c4.3762,7.5325,7.881,15.6324,10.3829,24.162C217.3956,84.297,221.1463,93.2429,223.535,102.7316z"/>
	<path fill="#59CB86" d="M226.5489,127.1246c0,8.4162-1.0486,16.5867-3.0139,24.3929c4.2529-7.7903,7.4962-15.9844,9.7249-24.3929
		c-2.2286-8.4085-5.4719-16.6027-9.7249-24.393C225.5004,110.5378,226.5489,118.7084,226.5489,127.1246z"/>
	<path fill="#5AD3E1" d="M118.6858,0.7954C88.858,2.7167,61.8451,14.9626,41.1817,34.0026
		c12.377-7.6758,25.9453-12.6647,39.8726-14.9672C92.1595,10.7154,104.892,4.4519,118.6858,0.7954z"/>
	<path fill="#4DB8DB" d="M51.4497,52.494c7.4966-13.076,17.601-24.4653,29.6046-33.4586
		c-13.9272,2.3024-27.4956,7.2914-39.8726,14.9672c-3.3022,3.0428-6.4419,6.2585-9.4052,9.6337
		c-7.1681,12.3391-11.7423,25.7712-13.7118,39.507C26.9338,70.7611,38.3102,60.3003,51.4497,52.494z"/>
	<path fill="#48ABD8" d="M41.3854,76.1103c2.4414-8.3233,5.835-16.2393,10.0643-23.6163
		c-13.1395,7.8063-24.5159,18.2671-33.3849,30.6492c-2.0991,14.6395-1.2417,29.6199,2.5645,43.9813
		c2.2286-8.4084,5.4719-16.6025,9.7249-24.3928C32.7428,93.2431,36.4935,84.297,41.3854,76.1103z"/>
	<path fill="#50B9BE" d="M27.3402,127.1246c0-8.4162,1.0486-16.5867,3.0139-24.3929c-4.2529,7.7903-7.4962,15.9844-9.7249,24.3928
		c2.2286,8.4085,5.4719,16.6027,9.7249,24.393C28.3888,143.7113,27.3402,135.5408,27.3402,127.1246z"/>
	<path fill="#47CDC7" d="M99.0878,17.5518c9.1604,0,18.3191,1.1447,27.2495,3.4189c9.448-2.5623,19.1702-3.8453,28.8916-3.8463
		c5.6-0.0005,11.1987,0.4312,16.7456,1.2806c-10.9016-8.0042-23.3307-14.0469-36.7711-17.6097
		c-2.7311-0.1759-5.4833-0.2752-8.2588-0.2752s-5.5277,0.0993-8.2588,0.2752c-13.7938,3.6565-26.5262,9.92-37.6315,18.24
		C87.0218,18.0489,93.0546,17.5518,99.0878,17.5518z"/>
	<path fill="#41C0C4" d="M102.557,30.5327c7.6013-4.1487,15.5864-7.3398,23.7803-9.562
		c-8.9304-2.2742-18.0891-3.4189-27.2495-3.4189c-6.0332,0-12.0659,0.4971-18.0334,1.4836
		C69.0506,28.0286,58.9463,39.418,51.4497,52.494c7.4366-4.4181,15.436-7.9864,23.8685-10.5668
		C83.671,36.8549,92.8307,32.9808,102.557,30.5327z"/>
	<path fill="#3FB9C2" d="M75.3182,41.9271c-8.4325,2.5804-16.4319,6.1487-23.8685,10.5668
		c-4.2294,7.377-7.6229,15.293-10.0643,23.6163C49.7359,62.1353,61.4079,50.3743,75.3182,41.9271z"/>
	<path fill="#40CAB9" d="M177.9588,41.5652c8.5295,2.5021,16.6294,6.0068,24.162,10.3831
		c-7.6429-13.1553-17.9355-24.5776-30.1464-33.5432c-5.5469-0.8494-11.1456-1.2811-16.7456-1.2806
		c-9.7214,0.0009-19.4436,1.284-28.8916,3.8463c8.3798,2.134,16.5566,5.2662,24.3417,9.4026
		C160.4118,32.7529,169.5832,36.5605,177.9588,41.5652z"/>
	<path fill="#3DC3B8" d="M126.9446,27.5202c8.1802,0,16.1272,0.9933,23.7344,2.8531c-7.785-4.1364-15.9619-7.2686-24.3417-9.4026
		c-8.1938,2.2221-16.179,5.4133-23.7803,9.562C110.3617,28.5684,118.5304,27.5202,126.9446,27.5202z"/>
	<path fill="#3FC8B3" d="M212.5038,76.1103c-2.502-8.5295-6.0067-16.6295-10.3829-24.162
		c-7.5326-4.3762-15.6324-7.881-24.162-10.3831C192.1373,50.0373,204.0317,61.9318,212.5038,76.1103z"/>
	<path fill="#FFFFFF" d="M176.442,49.3428c-0.1538-0.1539-0.3159-0.2963-0.4709-0.4486c0.2028,0.1982,0.4072,0.3934,0.6089,0.5936
		C176.5326,49.4403,176.4895,49.3903,176.442,49.3428z"/>
</g>
</svg>
