<?xml version="1.0" encoding="utf-8"?>
<!-- Generator: Adobe Illustrator 15.0.2, SVG Export Plug-In . SVG Version: 6.00 Build 0)  -->
<!DOCTYPE svg PUBLIC "-//W3C//DTD SVG 1.1//EN" "http://www.w3.org/Graphics/SVG/1.1/DTD/svg11.dtd">
<svg version="1.1" id="Layer_1" xmlns="http://www.w3.org/2000/svg" xmlns:xlink="http://www.w3.org/1999/xlink" x="0px" y="0px"
	 width="768px" height="768px" viewBox="0 0 768 768" enable-background="new 0 0 768 768" xml:space="preserve">
<path d="M97.846,301.315c59.448-111.514,169.691-180.787,287.708-180.787c50.988,0,101.217,12.545,149.936,37.38
	c-25.409-26.7-52.789-48.166-81.817-64.105c-40.068-22-82.555-33.156-126.278-33.156c-54.813,0-109.325,17.675-157.641,51.114
	c-23.454,16.231-44.829,35.783-63.532,58.111c-18.942,22.613-34.798,47.669-47.125,74.47
	C32.653,301.827,23.48,365.368,32.568,428.098c4.926,34.005,15.2,67.855,30.537,100.612c1.074,2.293,2.173,4.584,3.298,6.869
	C47.701,458.407,57.988,376.082,97.846,301.315z"/>
<path d="M205.287,572.786c-49.428-54.132-76.982-122.932-81.123-201.356c-11.255,38.139-16.08,75.197-14.375,110.695
	c2.285,47.583,16.151,91.252,41.212,129.793c25.979,39.953,63.662,73.155,108.975,96.016c44.62,22.512,95.301,34.41,146.566,34.41
	c68.427,0,133.95-20.812,189.484-60.186c30.071-21.321,56.947-47.955,79.882-79.162c3.186-4.334,6.299-8.764,9.336-13.28
	c-60.11,57.19-140.702,89.361-230.153,89.361C358.017,679.077,266.967,640.336,205.287,572.786z"/>
<path d="M655.233,282.699c24.076,109.515-2.696,249.927-140.072,338.884c26.379-6.389,50.868-15.122,73.208-26.131
	c35.1-17.297,64.896-40.179,88.561-68.011c22.208-26.119,38.765-56.243,49.212-89.537c10.038-31.991,14.186-65.998,12.326-101.074
	c-2.062-38.921-11.335-77.196-27.561-113.761c-16.608-37.43-39.613-70.988-68.374-99.74c-30.385-30.375-66.072-54.172-106.07-70.728
	c-34.767-14.39-72.325-23.071-111.987-25.911C552.071,64.611,631.981,176.941,655.233,282.699z"/>
</svg>
