<?xml version="1.0" encoding="UTF-8" standalone="no"?>
<svg width="40px" height="40px" viewBox="0 0 40 40" version="1.1" xmlns="http://www.w3.org/2000/svg" xmlns:xlink="http://www.w3.org/1999/xlink">
    <!-- Generator: Sketch 39 (31667) - http://www.bohemiancoding.com/sketch -->
    <title>icons/interface/home</title>
    <desc>Created with Sketch.</desc>
    <defs></defs>
    <g id="components" stroke="none" stroke-width="1" fill="none" fill-rule="evenodd">
        <g id="Iconography" transform="translate(-127.000000, -432.000000)" fill="#4A4A4A">
            <g id="icons/interface/home" transform="translate(127.000000, 432.000000)">
                <path d="M26,35.418483 L26,39.0843955 C34.1142142,36.5358684 40,28.9552841 40,20 C40,8.95430446 31.0456955,0 20,0 C8.95430446,0 0,8.95430446 0,20 C0,28.9552841 5.88578584,36.5358684 14,39.0843955 L14,35.418483 L14,22.1244183 L20.2253857,16.9365969 L27.2072716,22.7042418 L26,22 L26,35.418483 Z M30,32.4907422 C31.5077771,31.282063 32.7920017,29.8060302 33.7807835,28.1345342 L30,25.0112783 L30,32.4907422 Z M10,32.4907422 C8.58754508,31.3584761 7.37126995,29.9915921 6.41027414,28.4491898 L10,25.4577516 L10,32.4907422 Z M4.69845171,24.6902588 C4.24434656,23.2069681 4,21.6320191 4,20 C4,11.1634436 11.1634436,4 20,4 C28.8365564,4 36,11.1634436 36,20 C36,21.4955674 35.7948046,22.9432088 35.4110312,24.3163067 L23.3258826,14.3329231 L20.5083244,11.5153649 L4.69845171,24.6902588 Z M18,24 L18,28 L22,28 L22,24 L18,24 Z" id="icon-home"></path>
            </g>
        </g>
    </g>
</svg>