<?xml version="1.0" encoding="UTF-8" standalone="no"?>
<svg width="40px" height="40px" viewBox="0 0 40 40" version="1.1" xmlns="http://www.w3.org/2000/svg" xmlns:xlink="http://www.w3.org/1999/xlink">
    <!-- Generator: Sketch 39.1 (31720) - http://www.bohemiancoding.com/sketch -->
    <title>icons/interface/activity</title>
    <desc>Created with Sketch.</desc>
    <defs></defs>
    <g id="components" stroke="none" stroke-width="1" fill="none" fill-rule="evenodd">
        <g id="Iconography" transform="translate(-208.000000, -929.000000)" fill="#2B2933">
            <g id="icons/interface/activity" transform="translate(208.000000, 929.000000)">
                <path d="M20,40 C31.0456955,40 40,31.0456955 40,20 C40,8.95430446 31.0456955,0 20,0 C8.95430446,0 0,8.95430446 0,20 C0,31.0456955 8.95430446,40 20,40 Z M20,36 C28.8365564,36 36,28.8365564 36,20 C36,11.1634436 28.8365564,4 20,4 C11.1634436,4 4,11.1634436 4,20 C4,28.8365564 11.1634436,36 20,36 Z M21.6378592,25.9834116 L19.1025482,19.5676762 L17.0678446,24.6788201 C16.8860338,25.1353195 16.4671875,25.4551919 15.9787725,25.5104165 C15.4878474,25.5695857 15.0109077,25.3476115 14.7315573,24.9438265 L12.4311301,21.6185169 L10.3602078,24.1136645 C9.89008152,24.6809717 9.04844434,24.7584296 8.48185432,24.2883033 C7.91526431,23.8174599 7.83708923,22.9765399 8.3072155,22.4099499 L11.5016356,18.561441 C11.7680764,18.2404929 12.1679168,18.055096 12.5867631,18.0809153 C13.0034578,18.099204 13.3878783,18.3114959 13.6249138,18.6546773 L15.5097221,21.3796884 L17.8675255,15.4570298 C18.069418,14.949609 18.5603431,14.6164684 19.1068515,14.6164684 C19.6551528,14.6171856 20.1460779,14.951402 20.3472533,15.4598986 L22.7158147,21.4539189 L25.3110121,12.9450279 C25.4705897,12.42147 25.9342611,12.0485247 26.4800522,12.0044167 C27.0186714,11.9599502 27.5429464,12.2543618 27.7846437,12.7467213 L30.6165179,18.5187674 C30.9406935,19.1796696 30.6677979,19.9789918 30.0061786,20.3038846 C29.3431248,20.6277015 28.545237,20.3540888 28.2210614,19.6935452 L26.8773825,16.9538315 L24.154523,25.8826446 C23.9892078,26.4244911 23.4986413,26.8028155 22.9320512,26.8257659 C22.3328285,26.8268418 21.8397518,26.4940598 21.6378592,25.9834116 Z" id="icon-activity"></path>
            </g>
        </g>
    </g>
</svg>