<?xml version="1.0" encoding="UTF-8" standalone="no"?>
<svg width="40px" height="40px" viewBox="0 0 40 40" version="1.1" xmlns="http://www.w3.org/2000/svg" xmlns:xlink="http://www.w3.org/1999/xlink">
    <!-- Generator: Sketch 39 (31667) - http://www.bohemiancoding.com/sketch -->
    <title>icons/interface/agreement-add</title>
    <desc>Created with Sketch.</desc>
    <defs></defs>
    <g id="components" stroke="none" stroke-width="1" fill="none" fill-rule="evenodd">
        <g id="Iconography" transform="translate(-608.000000, -542.000000)" fill="#272721">
            <g id="icons/interface/agreement-add" transform="translate(608.000000, 542.000000)">
                <path d="M23,16 L18,16 L18,12 L23,12 L23,7 L27,7 L27,12 L32,12 L32,16 L27,16 L27,21 L23,21 L23,16 Z M26.92247,5.57094394 C32.2928238,8.15210574 36,13.6431239 36,20 C36,25.0527695 33.65785,29.5585002 30,32.4907422 L30,21.4086208 C28.8329895,22.1936966 27.4714401,22.7243471 26,22.9181921 L26,34.836966 C24.1471372,35.5869858 22.1218009,36 20,36 C11.1634436,36 4,28.8365564 4,20 C4,18.6188017 4.17501199,17.2784797 4.50406988,16 L15.7291567,16 C15.5791832,15.3567773 15.5,14.687388 15.5,14 C15.5,13.312612 15.5791832,12.6432227 15.7291567,12 L6.14051492,12 C8.90699337,7.21758693 14.0777426,4 20,4 C22.1239852,4 24.1513069,4.41386499 26.0057216,5.16535132 C26.3445895,5.26299131 26.646502,5.40088255 26.92247,5.57094394 Z M24,22.9710021 L24,24 L10,24 L10,20 L17.8547767,20 C19.3924709,21.6720125 21.5630294,22.7812242 24,22.9710021 Z M20,40 C31.0456955,40 40,31.0456955 40,20 C40,8.95430446 31.0456955,0 20,0 C8.95430446,0 0,8.95430446 0,20 C0,31.0456955 8.95430446,40 20,40 Z M24,28 L24,32 L10,32 L10,28 L24,28 Z" id="icon-calendar-/-date-copy"></path>
            </g>
        </g>
    </g>
</svg>