<?xml version="1.0" encoding="UTF-8" standalone="no"?>
<svg width="40px" height="40px" viewBox="0 0 40 40" version="1.1" xmlns="http://www.w3.org/2000/svg" xmlns:xlink="http://www.w3.org/1999/xlink">
    <!-- Generator: Sketch 39 (31667) - http://www.bohemiancoding.com/sketch -->
    <title>icons/interface/agreement</title>
    <desc>Created with Sketch.</desc>
    <defs></defs>
    <g id="components" stroke="none" stroke-width="1" fill="none" fill-rule="evenodd">
        <g id="Iconography" transform="translate(-608.000000, -432.000000)" fill="#272721">
            <g id="icons/interface/agreement" transform="translate(608.000000, 432.000000)">
                <path d="M35.4958614,24 C35.1165178,25.4736932 34.5325,26.8651714 33.776,28.1423027 L33.776,28 L18.977,28 L18.977,32 L30.583,32 C27.763,34.489 24.058,36 20,36 C18.619,36 17.278,35.825 16,35.496 L16,16 L35.496,16 C35.825,17.278 36,18.619 36,20 L18.977,20 L18.977,24 L35.4958614,24 Z M39,13.738 C39.648,15.708 40,17.812 40,20 C40,31.046 31.046,40 20,40 C8.954,40 0,31.046 0,20 C0,8.954 8.954,0 20,0 C28.201,0 35.25,4.937 38.336,12 L39,13.738 Z M12,33.859 C7.218,31.093 4,25.922 4,20 C4,11.164 11.164,4 20,4 C25.922,4 31.093,7.218 33.859,12 L12,12 L12,14 L12,33.859 Z" id="icon-agreement"></path>
            </g>
        </g>
    </g>
</svg>