<?xml version="1.0" encoding="UTF-8" standalone="no"?>
<svg width="40px" height="40px" viewBox="0 0 40 40" version="1.1" xmlns="http://www.w3.org/2000/svg" xmlns:xlink="http://www.w3.org/1999/xlink">
    <!-- Generator: Sketch 39 (31667) - http://www.bohemiancoding.com/sketch -->
    <title>icons/interface/alert</title>
    <desc>Created with Sketch.</desc>
    <defs></defs>
    <g id="components" stroke="none" stroke-width="1" fill="none" fill-rule="evenodd">
        <g id="Iconography" transform="translate(-528.000000, -288.000000)" fill="#4A4A4A">
            <g id="icons/interface/alert" transform="translate(528.000000, 288.000000)">
                <path d="M20,40 C31.0456955,40 40,31.0456955 40,20 C40,8.95430446 31.0456955,0 20,0 C8.95430446,0 0,8.95430446 0,20 C0,31.0456955 8.95430446,40 20,40 Z M20,36.097561 C28.8904379,36.097561 36.097561,28.8904379 36.097561,20 C36.097561,11.1095621 28.8904379,3.90243902 20,3.90243902 C11.1095621,3.90243902 3.90243902,11.1095621 3.90243902,20 C3.90243902,28.8904379 11.1095621,36.097561 20,36.097561 Z M18,10 L18,21 L22,21 L22,10 L18,10 Z M18,24 L18,28 L22,28 L22,24 L18,24 Z" id="icon-info"></path>
            </g>
        </g>
    </g>
</svg>