<?xml version="1.0" encoding="UTF-8" standalone="no"?>
<svg width="39px" height="37px" viewBox="0 0 39 37" version="1.1" xmlns="http://www.w3.org/2000/svg" xmlns:xlink="http://www.w3.org/1999/xlink">
    <!-- Generator: Sketch 39 (31667) - http://www.bohemiancoding.com/sketch -->
    <title>icons/interface/alert-triangle</title>
    <desc>Created with Sketch.</desc>
    <defs></defs>
    <g id="components" stroke="none" stroke-width="1" fill="none" fill-rule="evenodd">
        <g id="Iconography" transform="translate(-608.000000, -288.000000)" fill="#4A4A4A">
            <g id="icons/interface/alert-triangle" transform="translate(608.000000, 288.000000)">
                <path d="M16.5667178,2.18822896 C18.1399083,-0.726001563 20.6868755,-0.732815753 22.2637445,2.18822896 L38.1855322,31.6822798 C39.7587227,34.5965103 38.3456746,36.9589609 35.0333997,36.9589609 L3.79706257,36.9589609 C0.482997378,36.9589609 -0.931938926,34.6033245 0.644930055,31.6822798 L16.5667178,2.18822896 Z M17.9860371,6.89075814 C18.7725144,5.43490533 20.0490348,5.43747593 20.8341234,6.89075814 L34.0328,31.3229062 C34.8192773,32.778759 34.118684,33.9589609 32.4663819,33.9589609 L6.3537787,33.9589609 C4.70219253,33.9589609 4.00227192,32.7761884 4.78736056,31.3229062 L17.9860371,6.89075814 Z M17.4149845,14.0187482 L17.4149845,25.9087486 L21.4151232,25.9087486 L21.4151232,14.0187482 L17.4149845,14.0187482 Z M17.4149845,27.8913881 L17.4149845,31.8549995 L21.4151232,31.8549995 L21.4151232,27.8913881 L17.4149845,27.8913881 Z" id="Rectangle-115-Copy"></path>
            </g>
        </g>
    </g>
</svg>