<?xml version="1.0" encoding="UTF-8" standalone="no"?>
<svg width="20px" height="20px" viewBox="0 0 20 20" version="1.1" xmlns="http://www.w3.org/2000/svg" xmlns:xlink="http://www.w3.org/1999/xlink">
    <!-- Generator: Sketch 39.1 (31720) - http://www.bohemiancoding.com/sketch -->
    <title>icons/interface/checkbox-unselected</title>
    <desc>Created with Sketch.</desc>
    <defs></defs>
    <g id="components" stroke="none" stroke-width="1" fill="none" fill-rule="evenodd">
        <g id="Iconography" transform="translate(-832.000000, -128.000000)" fill="#444444">
            <g id="icons/interface/checkbox-unselected" transform="translate(832.000000, 128.000000)">
                <path d="M2,16.00077 C2,17.1037877 2.89591038,18 3.99922997,18 L16.00077,18 C17.1037877,18 18,17.1040896 18,16.00077 L18,3.99922997 C18,2.89621234 17.1040896,2 16.00077,2 L3.99922997,2 C2.89621234,2 2,2.89591038 2,3.99922997 L2,16.00077 Z M3.99922997,0 L16.00077,0 C18.2094838,0 20,1.79246765 20,3.99922997 L20,16.00077 C20,18.2094838 18.2075324,20 16.00077,20 L3.99922997,20 C1.79051625,20 0,18.2075324 0,16.00077 L0,3.99922997 C0,1.79051625 1.79246765,0 3.99922997,0 Z" id="Rectangle-2"></path>
            </g>
        </g>
    </g>
</svg>