<?xml version="1.0" encoding="UTF-8" standalone="no"?>
<svg width="40px" height="40px" viewBox="0 0 40 40" version="1.1" xmlns="http://www.w3.org/2000/svg" xmlns:xlink="http://www.w3.org/1999/xlink">
    <!-- Generator: Sketch 39 (31667) - http://www.bohemiancoding.com/sketch -->
    <title>icons/interface/cross-circle</title>
    <desc>Created with Sketch.</desc>
    <defs></defs>
    <g id="components" stroke="none" stroke-width="1" fill="none" fill-rule="evenodd">
        <g id="Iconography" transform="translate(-288.000000, -192.000000)" fill="#4A4A4A">
            <g id="icons/interface/close-circle" transform="translate(288.000000, 192.000000)">
                <path d="M17.1715729,20 L11.5147186,14.3431458 L14.3431458,11.5147186 L20,17.1715729 L25.6568542,11.5147186 L28.4852814,14.3431458 L22.8284271,20 L28.4852814,25.6568542 L25.6568542,28.4852814 L20,22.8284271 L14.3431458,28.4852814 L11.5147186,25.6568542 L17.1715729,20 Z M20,40 C31.0456955,40 40,31.0456955 40,20 C40,8.95430446 31.0456955,0 20,0 C8.95430446,0 0,8.95430446 0,20 C0,31.0456955 8.95430446,40 20,40 Z M20,36 C28.8365564,36 36,28.8365564 36,20 C36,11.1634436 28.8365564,4 20,4 C11.1634436,4 4,11.1634436 4,20 C4,28.8365564 11.1634436,36 20,36 Z" id="icon-plus"></path>
            </g>
        </g>
    </g>
</svg>