<?xml version="1.0" encoding="UTF-8" standalone="no"?>
<svg width="40px" height="40px" viewBox="0 0 40 40" version="1.1" xmlns="http://www.w3.org/2000/svg" xmlns:xlink="http://www.w3.org/1999/xlink">
    <!-- Generator: Sketch 39 (31667) - http://www.bohemiancoding.com/sketch -->
    <title>icons/interface/dashboard</title>
    <desc>Created with Sketch.</desc>
    <defs></defs>
    <g id="components" stroke="none" stroke-width="1" fill="none" fill-rule="evenodd">
        <g id="Iconography" transform="translate(-208.000000, -432.000000)" fill="#4A4A4A">
            <g id="icons/interface/dashboard" transform="translate(208.000000, 426.000000)">
                <path d="M25.7101047,24.1522641 L31.9999999,9.99999982 L20.3233423,20.008564 C20.2162821,20.0028787 20.1084772,20 20,20 C16.6862913,20 14,22.6862913 14,26 C14,29.3137087 16.6862913,32 20,32 C23.3137087,32 26,29.3137087 26,26 C26,25.3552835 25.8983138,24.7343171 25.7101047,24.1522641 Z M34.9695225,12.7364263 C38.0994841,16.2663478 40,20.9112291 40,26 C40,37.0456955 31.0456955,46 20,46 C8.95430446,46 0,37.0456955 0,26 C0,14.9543045 8.95430446,6 20,6 C23.0770088,6 25.991722,6.69486941 28.5957802,7.93624867 L24.6532113,10.6871592 C23.1807531,10.240297 21.6184387,10 20,10 C11.1634436,10 4,17.1634436 4,26 C4,34.8365564 11.1634436,42 20,42 C28.8365564,42 36,34.8365564 36,26 C36,22.5830991 34.9289235,19.4163617 33.1041994,16.8172166 L34.9695203,12.7364276 Z" id="dashboard-icon"></path>
            </g>
        </g>
    </g>
</svg>