<?xml version="1.0" encoding="UTF-8" standalone="no"?>
<svg width="40px" height="40px" viewBox="0 0 40 40" version="1.1" xmlns="http://www.w3.org/2000/svg" xmlns:xlink="http://www.w3.org/1999/xlink">
    <!-- Generator: Sketch 39 (31667) - http://www.bohemiancoding.com/sketch -->
    <title>icons/interface/down</title>
    <desc>Created with Sketch.</desc>
    <defs></defs>
    <g id="components" stroke="none" stroke-width="1" fill="none" fill-rule="evenodd">
        <g id="Iconography" transform="translate(-528.000000, -192.000000)" fill="#4A4A4A">
            <g id="icons/interface/chevron-down-circle" transform="translate(528.000000, 192.000000)">
                <path d="M26.0612554,20 L26.3708995,20.3096441 L18.8284271,27.8521164 L16,25.0236893 L21.0236893,20 L16,14.9763107 L18.8284271,12.1478836 L26.3708995,19.6903559 L26.0612554,20 Z M40,20 C40,8.95430446 31.0456955,0 20,0 C8.95430446,0 1.90100058e-15,8.95430446 1.2246468e-15,20 C5.48293015e-16,31.0456955 8.95430446,40 20,40 C31.0456955,40 40,31.0456955 40,20 Z M36,20 C36,11.1634436 28.8365564,4 20,4 C11.1634436,4 4,11.1634436 4,20 C4,28.8365564 11.1634436,36 20,36 C28.8365564,36 36,28.8365564 36,20 Z" id="icon-chevron-right" transform="translate(20.000000, 20.000000) rotate(-270.000000) translate(-20.000000, -20.000000) "></path>
            </g>
        </g>
    </g>
</svg>