<?xml version="1.0" encoding="UTF-8" standalone="no"?>
<svg width="40px" height="40px" viewBox="0 0 40 40" version="1.1" xmlns="http://www.w3.org/2000/svg" xmlns:xlink="http://www.w3.org/1999/xlink">
    <!-- Generator: Sketch 39 (31667) - http://www.bohemiancoding.com/sketch -->
    <title>icons/interface/download</title>
    <desc>Created with Sketch.</desc>
    <defs></defs>
    <g id="components" stroke="none" stroke-width="1" fill="none" fill-rule="evenodd">
        <g id="Iconography" transform="translate(-848.000000, -192.000000)" fill="#4A4A4A">
            <g id="icons/interface/download" transform="translate(848.000000, 192.000000)">
                <path d="M22,16.6715729 L22,10 L18,10 L18,16.6715729 L15.0251263,13.6966991 L12.1966991,16.5251263 L19.9748737,24.3033009 L20,24.2781746 L20.0251263,24.3033009 L27.8033009,16.5251263 L24.9748737,13.6966991 L22,16.6715729 Z M32.4907422,30 C29.5585002,33.65785 25.0527695,36 20,36 C14.9472305,36 10.4414998,33.65785 7.50925781,30 L32.4907422,30 Z M34.836966,26 C35.5869858,24.1471372 36,22.1218009 36,20 C36,11.1634436 28.8365564,4 20,4 C11.1634436,4 4,11.1634436 4,20 C4,22.1218009 4.41301422,24.1471372 5.16303396,26 L34.836966,26 Z M20,40 C31.0456955,40 40,31.0456955 40,20 C40,8.95430446 31.0456955,0 20,0 C8.95430446,0 0,8.95430446 0,20 C0,31.0456955 8.95430446,40 20,40 Z" id="icon-download"></path>
            </g>
        </g>
    </g>
</svg>