<?xml version="1.0" encoding="UTF-8" standalone="no"?>
<svg width="40px" height="40px" viewBox="0 0 40 40" version="1.1" xmlns="http://www.w3.org/2000/svg" xmlns:xlink="http://www.w3.org/1999/xlink">
    <!-- Generator: Sketch 39 (31667) - http://www.bohemiancoding.com/sketch -->
    <title>icons/interface/edit</title>
    <desc>Created with Sketch.</desc>
    <defs></defs>
    <g id="components" stroke="none" stroke-width="1" fill="none" fill-rule="evenodd">
        <g id="Iconography" transform="translate(-448.000000, -816.000000)" fill="#272721">
            <g id="icons/interface/edit" transform="translate(448.000000, 816.000000)">
                <path d="M35.5084562,16.0489903 C35.8294276,17.3127053 36,18.636433 36,20 C36,28.8365564 28.8365564,36 20,36 C11.1634436,36 4,28.8365564 4,20 C4,11.1634436 11.1634436,4 20,4 C21.3813599,4 22.7218339,4.17505294 24.0004487,4.50418537 L23,5.51086443 L10.031,19.1668644 L10,30.5108644 L21.312,30.5108644 L35.5084562,16.0489903 Z M20,40 C31.0456955,40 40,31.0456955 40,20 C40,8.95430446 31.0456955,0 20,0 C8.95430446,0 0,8.95430446 0,20 C0,31.0456955 8.95430446,40 20,40 Z M17.977,26.656 L17.977,22.656 L14,22.656 L14.004,20.976 L28.321,6 L33.977,11.656 L19.633,26.656 L17.977,26.656 Z" id="icons-edit"></path>
            </g>
        </g>
    </g>
</svg>