<?xml version="1.0" encoding="UTF-8" standalone="no"?>
<svg width="40px" height="40px" viewBox="0 0 40 40" version="1.1" xmlns="http://www.w3.org/2000/svg" xmlns:xlink="http://www.w3.org/1999/xlink">
    <!-- Generator: Sketch 39 (31667) - http://www.bohemiancoding.com/sketch -->
    <title>icons/interface/entity-add</title>
    <desc>Created with Sketch.</desc>
    <defs></defs>
    <g id="components" stroke="none" stroke-width="1" fill="none" fill-rule="evenodd">
        <g id="Iconography" transform="translate(-768.000000, -542.000000)" fill="#272721">
            <g id="icons/interface/entity-add" transform="translate(768.000000, 542.000000)">
                <path d="M32,5 L32,0 L28,0 L28,5 L23,5 L23,9 L28,9 L28,14 L32,14 L32,9 L37,9 L37,5 L32,5 Z M37.9635107,11.1970349 C39.2676639,13.8532976 40,16.8411256 40,20 C40,31.0456955 31.0456955,40 20,40 C8.95430446,40 0,31.0456955 0,20 C0,8.95430446 8.95430446,0 20,0 C21.3353511,0 22.640136,0.130868953 23.9022289,0.380480911 C22.8174291,1.38028466 21.9789857,2.64335448 21.4882864,4.06830258 C20.9982572,4.02310272 20.5018266,4 20,4 C11.1634436,4 4,11.1634436 4,20 C4,28.8365564 11.1634436,36 20,36 C28.8365564,36 36,28.8365564 36,20 C36,18.0568251 35.6535987,16.1945566 35.0191789,14.4715774 C36.2509185,13.6424998 37.2664682,12.5168799 37.9635107,11.1970349 Z M21.9355196,11 L14,11 L14,16 L26,16 L26,15.0644804 C24.241522,14.1905913 22.8094087,12.758478 21.9355196,11 Z M19,18 L12,18 L12,19.5 L12,22 L14,22 L14,20 L26,20 L26,22 L28,22 L28,19.5 L28,18 L21,18 L21,16 L19,16 L19,18 Z M22,22 L32,22 L32,27 L22,27 L22,22 Z M8,22 L18,22 L18,27 L8,27 L8,22 Z" id="icon-arrow-right-copy"></path>
            </g>
        </g>
    </g>
</svg>