<?xml version="1.0" encoding="UTF-8" standalone="no"?>
<svg width="40px" height="40px" viewBox="0 0 40 40" version="1.1" xmlns="http://www.w3.org/2000/svg" xmlns:xlink="http://www.w3.org/1999/xlink">
    <!-- Generator: Sketch 39 (31667) - http://www.bohemiancoding.com/sketch -->
    <title>icons/interface/entity</title>
    <desc>Created with Sketch.</desc>
    <defs></defs>
    <g id="components" stroke="none" stroke-width="1" fill="none" fill-rule="evenodd">
        <g id="Iconography" transform="translate(-768.000000, -432.000000)" fill="#272721">
            <g id="icons/interface/entity" transform="translate(768.000000, 432.000000)">
                <path d="M19,18 L12,18 L12,19.5 L12,22 L14,22 L14,20 L26,20 L26,22 L28,22 L28,19.5 L28,18 L21,18 L21,16 L19,16 L19,18 Z M20,40 C31.0456955,40 40,31.0456955 40,20 C40,8.95430446 31.0456955,0 20,0 C8.95430446,0 0,8.95430446 0,20 C0,31.0456955 8.95430446,40 20,40 Z M20,36 C28.8365564,36 36,28.8365564 36,20 C36,11.1634436 28.8365564,4 20,4 C11.1634436,4 4,11.1634436 4,20 C4,28.8365564 11.1634436,36 20,36 Z M22,22 L32,22 L32,27 L22,27 L22,22 Z M8,22 L18,22 L18,27 L8,27 L8,22 Z M14,11 L26,11 L26,16 L14,16 L14,11 Z" id="icon-arrow-right"></path>
            </g>
        </g>
    </g>
</svg>