<?xml version="1.0" encoding="UTF-8" standalone="no"?>
<svg width="40px" height="40px" viewBox="0 0 40 40" version="1.1" xmlns="http://www.w3.org/2000/svg" xmlns:xlink="http://www.w3.org/1999/xlink">
    <!-- Generator: Sketch 39 (31667) - http://www.bohemiancoding.com/sketch -->
    <title>icons/interface/file</title>
    <desc>Created with Sketch.</desc>
    <defs></defs>
    <g id="components" stroke="none" stroke-width="1" fill="none" fill-rule="evenodd">
        <g id="Iconography" transform="translate(-935.000000, -432.000000)" fill="#272721">
            <g id="icons/interface/file" transform="translate(935.000000, 432.000000)">
                <path d="M20,40 C31.0456955,40 40,31.0456955 40,20 C40,8.95430446 31.0456955,0 20,0 C8.95430446,0 0,8.95430446 0,20 C0,31.0456955 8.95430446,40 20,40 Z M20,36 C28.8365564,36 36,28.8365564 36,20 C36,11.1634436 28.8365564,4 20,4 C11.1634436,4 4,11.1634436 4,20 C4,28.8365564 11.1634436,36 20,36 Z M29.34375,19 L24,14.65625 L24,19 L29.34375,19 L29.34375,19 Z M34,27.7520147 L34,19 L24,9 L14,9 C12.34375,9 10.9296875,9.5859375 9.7578125,10.7578125 C8.5859375,11.9296875 8,13.34375 8,15 L8,30.5832979 C9.14385394,31.8792761 10.4943766,32.9885284 11.9999955,33.8594825 L12,15 C12,14.4375 12.1927083,13.9635417 12.578125,13.578125 C12.9635417,13.1927083 13.4375,13 14,13 L20,13 L20,23 L30,23 L30,32.4907422 C31.6217957,31.1906623 32.9849504,29.5812651 34,27.7520147 L34,27.7520147 Z" id="icon-arrow-right"></path>
            </g>
        </g>
    </g>
</svg>