<?xml version="1.0" encoding="UTF-8" standalone="no"?>
<svg width="40px" height="40px" viewBox="0 0 40 40" version="1.1" xmlns="http://www.w3.org/2000/svg" xmlns:xlink="http://www.w3.org/1999/xlink">
    <!-- Generator: Sketch 39 (31667) - http://www.bohemiancoding.com/sketch -->
    <title>icons/interface/file-add</title>
    <desc>Created with Sketch.</desc>
    <defs></defs>
    <g id="components" stroke="none" stroke-width="1" fill="none" fill-rule="evenodd">
        <g id="Iconography" transform="translate(-935.000000, -542.000000)" fill="#272721">
            <g id="icons/interface/file-add" transform="translate(935.000000, 542.000000)">
                <g id="icons/interface/file-copy">
                    <path d="M33,5 L33,0 L29,0 L29,5 L24,5 L24,9 L29,9 L29,14 L33,14 L33,9 L38,9 L38,5 L33,5 Z M38.3934868,12.1332977 C39.4275139,14.547857 40,17.2070728 40,20 C40,31.0456955 31.0456955,40 20,40 C8.95430446,40 0,31.0456955 0,20 C0,8.95430446 8.95430446,0 20,0 C21.623881,0 23.20256,0.193532593 24.7142302,0.558790981 C23.6914156,1.5570751 22.9054643,2.79695122 22.448607,4.18618877 C21.6503193,4.06359371 20.8325862,4 20,4 C11.1634436,4 4,11.1634436 4,20 C4,28.8365564 11.1634436,36 20,36 C28.8365564,36 36,28.8365564 36,20 C36,18.2413467 35.7162628,16.5489637 35.1920688,14.9661315 C36.4730563,14.2906352 37.5713424,13.3152105 38.3934868,12.1332977 Z M31,16 L34,19 L34,27.7520147 L34,27.7520147 C32.9849504,29.5812651 31.6217957,31.1906623 30,32.4907422 L30,23 L20,23 L20,13 L14,13 C13.4375,13 12.9635417,13.1927083 12.578125,13.578125 C12.1927083,13.9635417 12,14.4375 12,15 L11.9999955,33.8594825 C10.4943766,32.9885284 9.14385394,31.8792761 8,30.5832979 L8,15 C8,13.34375 8.5859375,11.9296875 9.7578125,10.7578125 C10.9296875,9.5859375 12.34375,9 14,9 L22.2230164,9 C23.1324748,13.0079774 26.7168252,16 31,16 Z M29.34375,19 L24,14.65625 L24,19 L29.34375,19 Z" id="Combined-Shape"></path>
                </g>
            </g>
        </g>
    </g>
</svg>