<?xml version="1.0" encoding="UTF-8" standalone="no"?>
<svg width="40px" height="40px" viewBox="0 0 40 40" version="1.1" xmlns="http://www.w3.org/2000/svg" xmlns:xlink="http://www.w3.org/1999/xlink">
    <!-- Generator: Sketch 39 (31667) - http://www.bohemiancoding.com/sketch -->
    <title>icons/interface/left</title>
    <desc>Created with Sketch.</desc>
    <defs></defs>
    <g id="components" stroke="none" stroke-width="1" fill="none" fill-rule="evenodd">
        <g id="Iconography" transform="translate(-608.000000, -192.000000)" fill="#4A4A4A">
            <g id="icons/interface/left" transform="translate(608.000000, 192.000000)">
                <path d="M13.9387446,20 L13.6291005,20.3096441 L21.1715729,27.8521164 L24,25.0236893 L18.9763107,20 L24,14.9763107 L21.1715729,12.1478836 L13.6291005,19.6903559 L13.9387446,20 Z M-7.10542736e-15,20 C-7.10542736e-15,8.95430446 8.95430446,0 20,0 C31.0456955,-7.10542736e-15 40,8.95430446 40,20 C40,31.0456955 31.0456955,40 20,40 C8.95430446,40 0,31.0456955 -7.10542736e-15,20 Z M4,20 C4,11.1634436 11.1634436,4 20,4 C28.8365564,4 36,11.1634436 36,20 C36,28.8365564 28.8365564,36 20,36 C11.1634436,36 4,28.8365564 4,20 Z" id="icon-chevron-left"></path>
            </g>
        </g>
    </g>
</svg>