<?xml version="1.0" encoding="UTF-8" standalone="no"?>
<svg width="40px" height="40px" viewBox="0 0 40 40" version="1.1" xmlns="http://www.w3.org/2000/svg" xmlns:xlink="http://www.w3.org/1999/xlink">
    <!-- Generator: Sketch 39 (31667) - http://www.bohemiancoding.com/sketch -->
    <title>icons/interface/link</title>
    <desc>Created with Sketch.</desc>
    <defs></defs>
    <g id="components" stroke="none" stroke-width="1" fill="none" fill-rule="evenodd">
        <g id="Iconography" transform="translate(-288.000000, -288.000000)">
            <g id="icons/interface/link" transform="translate(288.000000, 288.000000)">
                <g id="icon-link">
                    <path d="M20,40 C31.0456955,40 40,31.0456955 40,20 C40,8.95430446 31.0456955,0 20,0 C8.95430446,0 0,8.95430446 0,20 C0,31.0456955 8.95430446,40 20,40 Z M20,36 C28.8365564,36 36,28.8365564 36,20 C36,11.1634436 28.8365564,4 20,4 C11.1634436,4 4,11.1634436 4,20 C4,28.8365564 11.1634436,36 20,36 Z" id="icon-circle" fill="#444444"></path>
                    <path d="M23.1776695,23.622114 L26.9245779,23.622114 C27.6166413,23.622114 28.1776695,24.6139171 28.1776695,25.8388799 L28.1776695,38.1776695 L24.2886026,38.1776695 C24.2888068,32.4536571 24.2887794,26.949991 24.2887794,26.949991 C24.2887794,26.9511805 23.8450827,26.9520937 23.1776695,26.9527943 L23.1776695,29.7361124 C23.1776695,30.9618172 22.1913033,31.9554473 20.9554473,31.9554473 C19.7281479,31.9554473 18.7332251,30.9640101 18.7332251,29.7361124 L18.7332251,26.9548761 C17.7688307,26.9550613 17.068541,26.9550904 17.068541,26.9550904 C17.0675316,26.9550904 17.0670339,32.4554882 17.0667893,38.1776695 L13.1776695,38.1776695 L13.1776695,25.8388799 C13.1776695,24.6145939 13.7383109,23.622114 14.4307611,23.622114 L18.7332251,23.622114 L18.7332251,20.2887806 L14.4307611,20.2887806 C13.7386978,20.2887806 13.1776695,19.2969775 13.1776695,18.0720148 L13.1776695,3.17766953 L17.620109,3.17766953 C17.6197876,9.41261062 17.6198237,16.4004857 17.6198237,16.4004857 C17.6198237,16.3992987 18.0685732,16.3983603 18.7332251,16.3976215 L18.7332251,13.6192266 C18.7332251,12.3935218 19.7195914,11.3998918 20.9554473,11.3998918 C22.1827468,11.3998918 23.1776695,12.3913289 23.1776695,13.6192266 L23.1776695,16.3952553 C23.8399812,16.3950884 24.2868164,16.3950294 24.2868164,16.3950294 C24.2879684,16.3950294 24.2884465,9.41123038 24.2886438,3.17766953 L28.1776695,3.17766953 L28.1776695,18.0720148 C28.1776695,19.2963008 27.6170281,20.2887806 26.9245779,20.2887806 L23.1776695,20.2887806 L23.1776695,23.622114 Z" id="Path-Copy" fill="#494949" transform="translate(20.677670, 20.677670) rotate(-315.000000) translate(-20.677670, -20.677670) "></path>
                </g>
            </g>
        </g>
    </g>
</svg>