<?xml version="1.0" encoding="UTF-8" standalone="no"?>
<svg width="40px" height="40px" viewBox="0 0 40 40" version="1.1" xmlns="http://www.w3.org/2000/svg" xmlns:xlink="http://www.w3.org/1999/xlink">
    <!-- Generator: Sketch 39 (31667) - http://www.bohemiancoding.com/sketch -->
    <title>icons/interface/management</title>
    <desc>Created with Sketch.</desc>
    <defs></defs>
    <g id="components" stroke="none" stroke-width="1" fill="none" fill-rule="evenodd">
        <g id="Iconography" transform="translate(-1018.000000, -432.000000)" fill="#272721">
            <g id="icons/interface/management" transform="translate(1018.000000, 432.000000)">
                <path d="M35.8298525,17.6582554 C35.9419491,18.4226082 36,19.2045249 36,20 C36,28.8365564 28.8365564,36 20,36 C11.1634436,36 4,28.8365564 4,20 C4,11.1634436 11.1634436,4 20,4 C27.01633,4 32.9778381,8.51622684 35.1361279,14.8002842 L34.2154465,12.9589214 L19.6605596,26.826033 L14.1386652,21.304549 L11.0367033,24.4065109 L19.6301924,33 L35.8298525,17.6582554 Z M20,40 C31.0456955,40 40,31.0456955 40,20 C40,8.95430446 31.0456955,0 20,0 C8.95430446,0 0,8.95430446 0,20 C0,31.0456955 8.95430446,40 20,40 Z M18,10 L18,14 L28,14 L28,10 L18,10 Z M18,16 L18,20 L22,20 L22,16 L18,16 Z M12,16 L12,20 L16,20 L16,16 L12,16 Z M12,10 L12,14 L16,14 L16,10 L12,10 Z" id="icon-bars-alt"></path>
            </g>
        </g>
    </g>
</svg>