<?xml version="1.0" encoding="UTF-8" standalone="no"?>
<svg width="40px" height="40px" viewBox="0 0 40 40" version="1.1" xmlns="http://www.w3.org/2000/svg" xmlns:xlink="http://www.w3.org/1999/xlink">
    <!-- Generator: Sketch 39 (31667) - http://www.bohemiancoding.com/sketch -->
    <title>icons/interface/other</title>
    <desc>Created with Sketch.</desc>
    <defs></defs>
    <g id="components" stroke="none" stroke-width="1" fill="none" fill-rule="evenodd">
        <g id="Iconography" transform="translate(-368.000000, -542.000000)" fill="#272721">
            <g id="icons/interface/other" transform="translate(368.000000, 542.000000)">
                <path d="M21.9012495,39.8024991 C24.0987862,39.5843144 26.191683,39.0104271 28.1215499,38.1392274 L26.1085436,34.6525982 C24.787158,35.2093048 23.3753406,35.5936455 21.9012495,35.777462 L21.9012495,39.8024991 Z M29.5687741,37.4137124 C29.7820864,37.2957047 29.993014,37.1739129 30.2014662,37.0484274 L29.5687741,37.4137124 Z M31.5839223,36.1362323 C33.3351211,34.873855 34.873855,33.3351211 36.1362323,31.5839223 L32.6497374,29.5709935 C31.7680777,30.7315671 30.7315671,31.7680777 29.5709935,32.6497374 L31.5839223,36.1362323 Z M37.0484274,30.2014662 C37.1739129,29.993014 37.2957047,29.7820864 37.4137124,29.5687741 L37.0484271,30.2014667 Z M38.1392274,28.1215499 C39.0104271,26.191683 39.5843144,24.0987862 39.8024991,21.9012495 L35.777462,21.9012495 C35.5936455,23.3753406 35.2093048,24.787158 34.6525982,26.1085436 L38.1392274,28.1215499 Z M39.8024991,17.9012495 C39.5843144,15.7037129 39.0104271,13.610816 38.1392274,11.6809492 L34.6525982,13.6939555 C35.2093048,15.015341 35.5936455,16.4271585 35.777462,17.9012495 L39.8024991,17.9012495 Z M37.4137124,10.233725 C37.2957047,10.0204127 37.1739129,9.80948509 37.0484274,9.60103286 L37.4137124,10.233725 Z M36.1362323,8.21857676 C34.873855,6.46737797 33.3351211,4.92864407 31.5839223,3.66626673 L29.5709935,7.15276164 C30.7315671,8.03442134 31.7680777,9.07093192 32.6497374,10.2315055 L36.1362323,8.21857676 Z M30.2014662,2.75407163 C29.993014,2.62858621 29.7820864,2.50679436 29.5687741,2.38878665 L30.2014662,2.75407163 Z M28.1215499,1.66327165 C26.191683,0.792071995 24.0987862,0.218184694 21.9012495,1.50573998e-15 L21.9012495,4.02503702 C23.3753406,4.20885355 24.787158,4.59319428 26.1085436,5.1499009 L28.1215499,1.66327165 Z M17.9012495,3.95516953e-16 C15.7037129,0.218184694 13.610816,0.792071995 11.6809492,1.66327165 L13.6939555,5.1499009 C15.015341,4.59319428 16.4271585,4.20885355 17.9012495,4.02503702 L17.9012495,4.4408921e-16 Z M10.233725,2.38878665 C10.0204127,2.50679436 9.80948509,2.62858621 9.60103286,2.75407163 L10.233725,2.38878665 Z M8.21857676,3.66626673 C6.46737797,4.92864407 4.92864407,6.46737797 3.66626673,8.21857676 L7.15276164,10.2315055 C8.03442134,9.07093192 9.07093192,8.03442134 10.2315055,7.15276164 L8.21857676,3.66626673 Z M2.75407163,9.60103286 C2.62858621,9.80948509 2.50679436,10.0204127 2.38878665,10.233725 L2.75407194,9.60103232 Z M1.66327165,11.6809492 C0.792071995,13.610816 0.218184694,15.7037129 7.00828284e-16,17.9012495 L4.02503702,17.9012495 C4.20885355,16.4271585 4.59319428,15.015341 5.1499009,13.6939555 L1.66327165,11.6809492 Z M1.65145675e-15,21.9012495 C0.218184694,24.0987862 0.792071995,26.191683 1.66327165,28.1215499 L5.1499009,26.1085436 C4.59319428,24.787158 4.20885355,23.3753406 4.02503702,21.9012495 L1.76247905e-15,21.9012495 Z M2.38878665,29.5687741 C2.50679436,29.7820864 2.62858621,29.993014 2.75407163,30.2014662 L2.38878665,29.5687741 Z M3.66626673,31.5839223 C4.92864407,33.3351211 6.46737797,34.873855 8.21857676,36.1362323 L10.2315055,32.6497374 C9.07093192,31.7680777 8.03442134,30.7315671 7.15276164,29.5709935 L3.66626673,31.5839223 Z M9.60103286,37.0484274 C9.80948509,37.1739129 10.0204127,37.2957047 10.233725,37.4137124 L9.60103286,37.0484274 Z M11.6809492,38.1392274 C13.610816,39.0104271 15.7037129,39.5843144 17.9012495,39.8024991 L17.9012495,35.777462 C16.4271585,35.5936455 15.015341,35.2093048 13.6939555,34.6525982 L11.6809492,38.1392274 Z" id="icon-arrow-right"></path>
            </g>
        </g>
    </g>
</svg>