<?xml version="1.0" encoding="UTF-8" standalone="no"?>
<svg width="40px" height="40px" viewBox="0 0 40 40" version="1.1" xmlns="http://www.w3.org/2000/svg" xmlns:xlink="http://www.w3.org/1999/xlink">
    <!-- Generator: Sketch 39 (31667) - http://www.bohemiancoding.com/sketch -->
    <title>icons/interface/pin</title>
    <desc>Created with Sketch.</desc>
    <defs></defs>
    <g id="components" stroke="none" stroke-width="1" fill="none" fill-rule="evenodd">
        <g id="Iconography" transform="translate(-128.000000, -720.000000)" fill="#272721">
            <g id="icons/interface/pin" transform="translate(128.000000, 720.000000)">
                <path d="M7.10542736e-15,20 C7.10542736e-15,31.0456955 8.95430446,40 20,40 C31.0456955,40 40,31.0456955 40,20 C40,8.95430446 31.0456955,-5.076366e-15 20,-7.10542736e-15 C8.95430446,-9.13448871e-15 1.42108547e-14,8.95430446 7.10542736e-15,20 Z M4,20 C4,28.8365564 11.1634436,36 20,36 C28.8365564,36 36,28.8365564 36,20 C36,11.1634436 28.8365564,4 20,4 C11.1634436,4 4,11.1634436 4,20 Z M20,31 C23,28 28,22.418278 28,18 C28,13.581722 24.418278,10 20,10 C15.581722,10 12,13.581722 12,18 C12,22.418278 17,28 20,31 Z M20,19 C21.1045695,19 22,18.1045695 22,17 C22,15.8954305 21.1045695,15 20,15 C18.8954305,15 18,15.8954305 18,17 C18,18.1045695 18.8954305,19 20,19 Z" id="icon-pin"></path>
            </g>
        </g>
    </g>
</svg>