<?xml version="1.0" encoding="UTF-8" standalone="no"?>
<svg width="40px" height="40px" viewBox="0 0 40 40" version="1.1" xmlns="http://www.w3.org/2000/svg" xmlns:xlink="http://www.w3.org/1999/xlink">
    <!-- Generator: Sketch 39 (31667) - http://www.bohemiancoding.com/sketch -->
    <title>icons/interface/plus-circle</title>
    <desc>Created with Sketch.</desc>
    <defs></defs>
    <g id="components" stroke="none" stroke-width="1" fill="none" fill-rule="evenodd">
        <g id="Iconography" transform="translate(-128.000000, -192.000000)" fill="#4A4A4A">
            <g id="icons/interface/plus-circle" transform="translate(128.000000, 192.000000)">
                <path d="M18.5,22 L10,22 L10,18 L18.5,18 L18.5,9.5 L22.5,9.5 L22.5,18 L31,18 L31,22 L22.5,22 L22.5,30.5 L18.5,30.5 L18.5,22 Z M20,40 C31.0456955,40 40,31.0456955 40,20 C40,8.95430446 31.0456955,0 20,0 C8.95430446,0 0,8.95430446 0,20 C0,31.0456955 8.95430446,40 20,40 Z M20,36 C28.8365564,36 36,28.8365564 36,20 C36,11.1634436 28.8365564,4 20,4 C11.1634436,4 4,11.1634436 4,20 C4,28.8365564 11.1634436,36 20,36 Z" id="icon-plus"></path>
            </g>
        </g>
    </g>
</svg>