<?xml version="1.0" encoding="UTF-8" standalone="no"?>
<svg width="40px" height="40px" viewBox="0 0 40 40" version="1.1" xmlns="http://www.w3.org/2000/svg" xmlns:xlink="http://www.w3.org/1999/xlink">
    <!-- Generator: Sketch 39 (31667) - http://www.bohemiancoding.com/sketch -->
    <title>icons/interface/property-add</title>
    <desc>Created with Sketch.</desc>
    <defs></defs>
    <g id="components" stroke="none" stroke-width="1" fill="none" fill-rule="evenodd">
        <g id="Iconography" transform="translate(-688.000000, -542.000000)" fill="#272721">
            <g id="icons/interface/property-add" transform="translate(688.000000, 542.000000)">
                <path d="M27.88,14.12 L31.88,14.12 L31.88,9.12 L36.88,9.12 L36.88,5.12 L31.88,5.12 L31.88,0.12 L27.88,0.12 L27.88,5.12 L22.88,5.12 L22.88,9.12 L27.88,9.12 L27.88,14.12 Z M22,30 L18,30 L18,34 L22,34 L22,30 Z M35.496,24 L28,24 L28,33.86 C29.726,32.861 31.25,31.548 32.49,30 L30,30 L30,26 L34,26 L34,27.752 C34.648,26.583 35.154,25.326 35.496,24 L35.496,24 Z M24,16 L16,16 L16,35.496 C17.278,35.826 18.619,36 20,36 C21.38,36 22.721,35.826 24,35.496 L24,16 Z M4.79639929,25 C4.27954742,23.4271527 4,21.7464706 4,20 C4,11.163 11.164,4 20,4 C20.408,4 20.809,4.032 21.21,4.061 C21.681,2.72 22.465,1.467 23.659,0.35 C22.471,0.13 21.251,0 20,0 C8.954,0 0,8.954 0,20 C0,31.046 8.954,40 20,40 C31.046,40 40,31.046 40,20 C40,16.909 39.278,13.993 38.026,11.38 C37.563,12.265 36.957,13.092 36.189,13.815 C35.839,14.145 35.464,14.431 35.08,14.696 C35.665,16.358 36,18.138 36,20 L28,20 L28,16.12 C26.218,15.749 24.527,14.854 23.184,13.429 C22.763,12.982 22.398,12.502 22.083,12 L12,12 L12,14 L12,33.86 C11.297,33.453 10.629,32.995 10,32.491 L10,30 L7.509,30 C7.00431877,29.3705274 6.54627452,28.702129 6.14008666,28 L12,28 L12,25 L4.79639929,25 Z M22,24 L18,24 L18,28 L22,28 L22,24 Z M22,22 L18,22 L18,18 L22,18 L22,22 Z" id="Fill-1"></path>
            </g>
        </g>
    </g>
</svg>