<?xml version="1.0" encoding="UTF-8" standalone="no"?>
<svg width="40px" height="40px" viewBox="0 0 40 40" version="1.1" xmlns="http://www.w3.org/2000/svg" xmlns:xlink="http://www.w3.org/1999/xlink">
    <!-- Generator: Sketch 39 (31667) - http://www.bohemiancoding.com/sketch -->
    <title>icons/interface/property</title>
    <desc>Created with Sketch.</desc>
    <defs></defs>
    <g id="components" stroke="none" stroke-width="1" fill="none" fill-rule="evenodd">
        <g id="Iconography" transform="translate(-688.000000, -432.000000)" fill="#272721">
            <g id="icons/interface/property" transform="translate(688.000000, 432.000000)">
                <path d="M36,20 C36,11.1634436 28.8365564,4 20,4 C11.1634436,4 4,11.1634436 4,20 C4,21.3811983 4.17501199,22.7215203 4.50406988,24 L12,24 L12,28 L6.14051492,28 C6.54668117,28.7021404 7.00467229,29.3705505 7.50925781,30 L10,30 L10,32.4907422 C10.6294481,32.9953266 11.2978568,33.4533169 11.9999955,33.8594825 L12,14 L12,12 L28,12 L28,14 L28,33.8594851 C29.7268864,32.8605346 31.2497371,31.5481023 32.4907422,30 L30,30 L30,26 L34,26 L34,27.7520147 C34.6485143,26.5833083 35.1549349,25.3248595 35.4959301,24 L28,24 L28,20 L36,20 Z M24,35.4959301 C22.7215203,35.824988 21.3811983,36 20,36 C18.6188017,36 17.2784797,35.824988 16,35.4959301 L16,16 L24,16 L24,35.4959301 Z M20,40 C31.0456955,40 40,31.0456955 40,20 C40,8.95430446 31.0456955,0 20,0 C8.95430446,0 0,8.95430446 0,20 C0,31.0456955 8.95430446,40 20,40 Z M18,18 L18,22 L22,22 L22,18 L18,18 Z M18,24 L18,28 L22,28 L22,24 L18,24 Z M18,30 L18,34 L22,34 L22,30 L18,30 Z" id="icon-company"></path>
            </g>
        </g>
    </g>
</svg>