<?xml version="1.0" encoding="UTF-8" standalone="no"?>
<svg width="40px" height="40px" viewBox="0 0 40 40" version="1.1" xmlns="http://www.w3.org/2000/svg" xmlns:xlink="http://www.w3.org/1999/xlink">
    <!-- Generator: Sketch 39 (31667) - http://www.bohemiancoding.com/sketch -->
    <title>icons/interface/question</title>
    <desc>Created with Sketch.</desc>
    <defs></defs>
    <g id="components" stroke="none" stroke-width="1" fill="none" fill-rule="evenodd">
        <g id="Iconography" transform="translate(-448.000000, -288.000000)" fill="#4A4A4A">
            <g id="icons/interface/question" transform="translate(448.000000, 288.000000)">
                <path d="M20,0 C31.0456955,0 40,8.95430446 40,20 C40,31.0456955 31.0456955,40 20,40 C8.95430446,40 0,31.0456955 0,20 C0,8.95430446 8.95430446,0 20,0 Z M20,4 C28.8365564,4 36,11.1634436 36,20 C36,28.8365564 28.8365564,36 20,36 C11.1634436,36 4,28.8365564 4,20 C4,11.1634436 11.1634436,4 20,4 Z M22,26.5 C22,26.225 21.775,26 21.5,26 L18.5,26 C18.225,26 18,26.225 18,26.5 L18,29.5 C18,29.775 18.225,30 18.5,30 L21.5,30 C21.775,30 22,29.775 22,29.5 L22,26.5 Z M19.9307203,10 C17.203555,10 15.5857384,11.203144 14.141945,14.0000189 C13.9948919,14.2812689 13.9146812,15.7968915 14.141945,16.0000165 C14.2488926,16.0781415 15.9335515,16.0000165 16.0538676,16.0000165 C17.9789257,16.0000165 17.6580828,16.2656415 17.9789257,16.0000165 C18.2730318,15.7656415 19.4693919,14.0000189 20.0709725,14.0000189 C21.1538176,14.0000189 22.047315,15.1250165 22.047315,16.0000165 C22.047315,17.0000165 21.3076715,17.7343747 20.2783002,18.2812497 C19.101876,18.9062497 17.9789257,20.1093842 17.9789257,22.0000091 L17.9789257,24 L22.047315,24 C22.3547895,24 22.047315,22.3437591 22.047315,22.0000091 C22.047315,21.5468841 22.2167266,21.7187496 23.0054655,21.1874996 C24.275469,20.3593746 26,19.2187497 26,16.2499998 C26,12.6718749 22.7915702,10 19.9307203,10 Z" id="icon-help"></path>
            </g>
        </g>
    </g>
</svg>