<?xml version="1.0" encoding="UTF-8" standalone="no"?>
<svg width="40px" height="40px" viewBox="0 0 40 40" version="1.1" xmlns="http://www.w3.org/2000/svg" xmlns:xlink="http://www.w3.org/1999/xlink">
    <!-- Generator: Sketch 39 (31667) - http://www.bohemiancoding.com/sketch -->
    <title>icons/interface/report</title>
    <desc>Created with Sketch.</desc>
    <defs></defs>
    <g id="components" stroke="none" stroke-width="1" fill="none" fill-rule="evenodd">
        <g id="Iconography" transform="translate(-848.000000, -432.000000)" fill="#272721">
            <g id="icons/interface/report" transform="translate(848.000000, 432.000000)">
                <path d="M33.8594851,28 C33.4533188,28.7021404 32.9953277,29.3705505 32.4907422,30 L28,30 L28,33.8594851 C25.6466131,35.2208458 22.9142972,36 20,36 C11.1634436,36 4,28.8365564 4,20 C4,11.1634436 11.1634436,4 20,4 C22.9142972,4 25.6466131,4.7791542 28,6.14051492 L28,10 L32.4907422,10 C32.9953277,10.6294495 33.4533188,11.2978596 33.8594851,12 L24,12 L24,16 L35.4959301,16 C35.6636225,16.6515308 35.7913083,17.3191224 35.8762125,18 L12,18 L12,22 L35.8762125,22 C35.7913083,22.6808776 35.6636225,23.3484692 35.4959301,24 L20,24 L20,28 L33.8594851,28 Z M20,40 C31.0456955,40 40,31.0456955 40,20 C40,8.95430446 31.0456955,0 20,0 C8.95430446,0 0,8.95430446 0,20 C0,31.0456955 8.95430446,40 20,40 Z" id="icon-bars-vertical" transform="translate(20.000000, 20.000000) rotate(-270.000000) translate(-20.000000, -20.000000) "></path>
            </g>
        </g>
    </g>
</svg>