<?xml version="1.0" encoding="UTF-8" standalone="no"?>
<svg width="40px" height="40px" viewBox="0 0 40 40" version="1.1" xmlns="http://www.w3.org/2000/svg" xmlns:xlink="http://www.w3.org/1999/xlink">
    <!-- Generator: Sketch 39 (31667) - http://www.bohemiancoding.com/sketch -->
    <title>icons/interface/report-add</title>
    <desc>Created with Sketch.</desc>
    <defs></defs>
    <g id="components" stroke="none" stroke-width="1" fill="none" fill-rule="evenodd">
        <g id="Iconography" transform="translate(-848.000000, -542.000000)" fill="#272721">
            <g id="icons/interface/report-add" transform="translate(848.000000, 542.000000)">
                <path d="M5,7 L-2.26683454e-15,7 L-2.26683454e-15,11 L5,11 L5,16 L9,16 L9,11 L14,11 L14,7 L9,7 L9,2 L5,2 L5,7 Z M4.18618877,17.551393 C4.06359371,18.3496807 4,19.1674138 4,20 C4,28.8365564 11.1634436,36 20,36 C22.9142972,36 25.6466131,35.2208458 28,33.8594851 L28,30 L32.4907422,30 C32.9953277,29.3705505 33.4533188,28.7021404 33.8594851,28 L20,28 L20,24 L35.4959301,24 C35.6636225,23.3484692 35.7913083,22.6808776 35.8762125,22 L12,22 L12,18 L35.8762125,18 C35.7913083,17.3191224 35.6636225,16.6515308 35.4959301,16 L24,16 L24,12 L33.8594851,12 C33.4533188,11.2978596 32.9953277,10.6294495 32.4907422,10 L28,10 L28,6.14051492 C25.6466131,4.7791542 22.9142972,4 20,4 C18.2413467,4 16.5489637,4.28373716 14.9661315,4.8079312 C14.2906352,3.52694371 13.3152105,2.42865762 12.1332977,1.60651318 C14.547857,0.572486094 17.2070728,-3.55271368e-15 20,-3.55271368e-15 C31.0456955,-3.55271368e-15 40,8.95430446 40,20 C40,31.0456955 31.0456955,40 20,40 C8.95430446,40 -3.55271368e-15,31.0456955 -3.55271368e-15,20 C-3.55271368e-15,18.376119 0.193532593,16.79744 0.558790981,15.2857698 C1.5570751,16.3085844 2.79695122,17.0945357 4.18618877,17.551393 Z" id="resport-add" transform="translate(20.000000, 20.000000) rotate(-270.000000) translate(-20.000000, -20.000000) "></path>
            </g>
        </g>
    </g>
</svg>