<?xml version="1.0" encoding="UTF-8" standalone="no"?>
<svg width="40px" height="40px" viewBox="0 0 40 40" version="1.1" xmlns="http://www.w3.org/2000/svg" xmlns:xlink="http://www.w3.org/1999/xlink">
    <!-- Generator: Sketch 39 (31667) - http://www.bohemiancoding.com/sketch -->
    <title>icons/interface/search</title>
    <desc>Created with Sketch.</desc>
    <defs></defs>
    <g id="components" stroke="none" stroke-width="1" fill="none" fill-rule="evenodd">
        <g id="Iconography" transform="translate(-208.000000, -288.000000)" fill="#444444">
            <g id="icons/interface/search" transform="translate(208.000000, 288.000000)">
                <path d="M29.4607376,32.9046043 C26.8108815,34.8505716 23.5396725,36 20,36 C11.1634436,36 4,28.8365564 4,20 C4,11.1634436 11.1634436,4 20,4 C28.8365564,4 36,11.1634436 36,20 C36,23.5396725 34.8505716,26.8108815 32.9046043,29.4607376 L28.5812415,25.1373748 C29.4820763,23.6358926 30,21.8784301 30,20 C30,14.4771522 25.5228478,10 20,10 C14.4771522,10 10,14.4771522 10,20 C10,25.5228478 14.4771522,30 20,30 C21.8784301,30 23.6358926,29.4820763 25.1373748,28.5812415 L29.4607376,32.9046043 Z M-7.10542736e-15,20 C-7.10542736e-15,31.0456955 8.95430446,40 20,40 C31.0456955,40 40,31.0456955 40,20 C40,8.95430446 31.0456955,2.02906135e-15 20,0 C8.95430446,-2.02906135e-15 0,8.95430446 -7.10542736e-15,20 Z M14.557971,19.942029 C14.557971,22.9795953 17.0204047,25.442029 20.057971,25.442029 C23.0955373,25.442029 25.557971,22.9795953 25.557971,19.942029 C25.557971,16.9044627 23.0955373,14.442029 20.057971,14.442029 C17.0204047,14.442029 14.557971,16.9044627 14.557971,19.942029 Z" id="search-icon"></path>
            </g>
        </g>
    </g>
</svg>