<?xml version="1.0" encoding="UTF-8" standalone="no"?>
<svg width="40px" height="40px" viewBox="0 0 40 40" version="1.1" xmlns="http://www.w3.org/2000/svg" xmlns:xlink="http://www.w3.org/1999/xlink">
    <!-- Generator: Sketch 39 (31667) - http://www.bohemiancoding.com/sketch -->
    <title>icons/interface/settings</title>
    <desc>Created with Sketch.</desc>
    <defs></defs>
    <g id="components" stroke="none" stroke-width="1" fill="none" fill-rule="evenodd">
        <g id="Iconography" transform="translate(-1130.000000, -432.000000)" fill="#272721">
            <g id="icons/interface/settings" transform="translate(1130.000000, 432.000000)">
                <path d="M38.5714286,14.2857143 L35.4285714,14.2857143 C35.1428571,14.2857143 34.8571429,13 34.4285714,12.1428571 L36.5714286,10.1428571 C37.1428571,9.57142857 37.1428571,8.71428571 36.5714286,8.14285714 L31.2857143,2.85714286 C31,2.57142857 30.7142857,2.42857143 30.2857143,2.42857143 C29.8571429,2.42857143 29.5714286,2.57142857 29.2857143,2.85714286 L27.2857143,5.14285714 C26.7142857,5 25.7142857,4.71428571 25.7142857,4.57142857 L25.7142857,1.42857143 C25.7142857,0.571428571 24.5714286,0 23.7142857,0 L16.2857143,0 C15.4285714,0 14.2857143,0.571428571 14.2857143,1.42857143 L14.2857143,4.57142857 C14.2857143,4.85714286 13.1428571,5.14285714 12.4285714,5.42857143 L10.1428571,3 C9.57142857,2.42857143 8.71428571,2.42857143 8.14285714,3 L3,8.28571429 C2.42857143,8.85714286 2.42857143,9.71428571 3,10.2857143 L5.42857143,12.4285714 C5.14285714,13.1428571 4.85714286,14.2857143 4.57142857,14.2857143 L1.42857143,14.2857143 C0.571428571,14.2857143 0,15.4285714 0,16.2857143 L0,23.7142857 C0,24.5714286 0.571428571,25.7142857 1.42857143,25.7142857 L4.57142857,25.7142857 C4.71428571,25.7142857 5,26.7142857 5.28571429,27.2857143 L3,29.4285714 C2.71428571,29.7142857 2.57142857,30 2.57142857,30.4285714 C2.57142857,30.8571429 2.71428571,31.1428571 3,31.4285714 L8.28571429,36.7142857 C8.85714286,37.2857143 9.71428571,37.2857143 10.2857143,36.7142857 L12.1428571,34.5714286 C12.8571429,35 14.2857143,35.2857143 14.2857143,35.5714286 L14.2857143,38.5714286 C14.2857143,39.4285714 15.4285714,40 16.2857143,40 L23.7142857,40 C24.5714286,40 25.7142857,39.4285714 25.7142857,38.5714286 L25.7142857,35.4285714 C25.7142857,35.1428571 26.8571429,34.8571429 27.5714286,34.5714286 L29.4285714,36.5714286 C30,37.1428571 30.8571429,37.1428571 31.4285714,36.5714286 L36.7142857,31.2857143 C37,31 37.1428571,30.7142857 37.1428571,30.2857143 C37.1428571,29.8571429 37,29.5714286 36.7142857,29.2857143 L34.7142857,27.5714286 C35,26.8571429 35.2857143,25.7142857 35.5714286,25.7142857 L38.5714286,25.7142857 C39.4285714,25.7142857 40,24.5714286 40,23.7142857 L40,16.2857143 C40,15.4285714 39.4285714,14.2857143 38.5714286,14.2857143 Z M37,22.8333333 L34.3083333,22.8333333 C33.6,22.8333333 33.0333333,22.975 32.8916667,23.6833333 C32.6083333,24.8166667 32.0416667,25.95 31.475,26.9416667 C31.1916667,27.5083333 31.1916667,28.075 31.7583333,28.6416667 L33.4583333,30.3416667 L30.2,33.6 L28.5,31.6166667 C28.075,31.1916667 27.3666667,31.05 26.8,31.3333333 C25.6666667,31.9 24.8166667,32.4666667 23.6833333,32.75 C23.1166667,32.8916667 22.8333333,33.4583333 22.8333333,34.1666667 L22.8333333,37 L17.1666667,37 L17.1666667,34.3083333 C17.1666667,33.6 17.025,33.0333333 16.3166667,32.8916667 C15.0416667,32.6083333 13.9083333,32.0416667 12.775,31.3333333 C12.2083333,31.05 11.5,31.05 11.075,31.475 L9.23333333,33.3166667 L5.975,30.0583333 L7.95833333,28.075 C8.66666667,27.7916667 8.66666667,27.0833333 8.38333333,26.5166667 C7.81666667,25.525 7.39166667,24.675 7.10833333,23.5416667 C6.96666667,22.975 6.4,22.6916667 5.69166667,22.6916667 L3,22.6916667 L3,17.025 L5.69166667,17.025 C6.4,17.025 6.96666667,16.8833333 7.10833333,16.175 C7.39166667,14.9 7.95833333,13.9083333 8.525,12.9166667 C8.80833333,12.35 8.80833333,11.7833333 8.24166667,11.2166667 L6.25833333,9.375 L9.51666667,6.11666667 L11.5,8.24166667 C11.925,8.66666667 12.6333333,8.80833333 13.2,8.525 C14.1916667,7.95833333 15.1833333,7.39166667 16.3166667,7.10833333 C16.8833333,6.96666667 17.1666667,6.4 17.1666667,5.69166667 L17.1666667,3 L22.8333333,3 L22.8333333,5.69166667 C22.8333333,6.4 22.975,6.96666667 23.6833333,7.10833333 C24.8166667,7.39166667 25.8083333,7.81666667 26.8,8.38333333 C27.225,8.66666667 27.7916667,8.66666667 28.3583333,8.1 L30.3416667,6.11666667 L33.6,9.375 L31.7583333,11.2166667 C31.3333333,11.6416667 31.1916667,12.35 31.6166667,12.9166667 C32.325,14.05 32.8916667,15.0416667 33.175,16.3166667 C33.3166667,16.8833333 33.8833333,17.1666667 34.5916667,17.1666667 L37,17.1666667 L37,22.8333333 Z M19.5,11 C14.825,11 11,14.825 11,19.5 C11,24.175 14.825,28 19.5,28 C24.175,28 28,24.175 28,19.5 C28,14.825 24.175,11 19.5,11 Z M19.5,25 C16.475,25 14,22.525 14,19.5 C14,16.475 16.475,14 19.5,14 C22.525,14 25,16.475 25,19.5 C25,22.525 22.525,25 19.5,25 Z" id="settings"></path>
            </g>
        </g>
    </g>
</svg>