<?xml version="1.0" encoding="UTF-8" standalone="no"?>
<svg width="40px" height="40px" viewBox="0 0 40 40" version="1.1" xmlns="http://www.w3.org/2000/svg" xmlns:xlink="http://www.w3.org/1999/xlink">
    <!-- Generator: Sketch 39 (31667) - http://www.bohemiancoding.com/sketch -->
    <title>icons/interface/tick circle</title>
    <desc>Created with Sketch.</desc>
    <defs></defs>
    <g id="components" stroke="none" stroke-width="1" fill="none" fill-rule="evenodd">
        <g id="Iconography" transform="translate(-368.000000, -192.000000)" fill="#4A4A4A">
            <g id="icons/interface/tick-circle" transform="translate(368.000000, 192.000000)">
                <path d="M34.5640951,13.3658377 C35.4862113,15.3869159 36,17.633457 36,20 C36,28.8365564 28.8365564,36 20,36 C11.1634436,36 4,28.8365564 4,20 C4,11.1634436 11.1634436,4 20,4 C24.9044014,4 29.2934185,6.20662097 32.2283934,9.68120499 L20.1832782,21.1467535 L14.943488,15.9120953 L12,18.8529189 L20.1544625,27 L34.5640951,13.3658377 Z M20,40 C31.0456955,40 40,31.0456955 40,20 C40,8.95430446 31.0456955,0 20,0 C8.95430446,0 0,8.95430446 0,20 C0,31.0456955 8.95430446,40 20,40 Z" id="icon-check"></path>
            </g>
        </g>
    </g>
</svg>