<?xml version="1.0" encoding="UTF-8" standalone="no"?>
<svg width="40px" height="40px" viewBox="0 0 40 40" version="1.1" xmlns="http://www.w3.org/2000/svg" xmlns:xlink="http://www.w3.org/1999/xlink">
    <!-- Generator: Sketch 39 (31667) - http://www.bohemiancoding.com/sketch -->
    <title>icons/interface/trust</title>
    <desc>Created with Sketch.</desc>
    <defs></defs>
    <g id="components" stroke="none" stroke-width="1" fill="none" fill-rule="evenodd">
        <g id="Iconography" transform="translate(-128.000000, -542.000000)" fill="#272721">
            <g id="icons/interface/trust" transform="translate(128.000000, 542.000000)">
                <path d="M32.2801542,35.7871586 C28.8908457,38.4273389 24.6290803,40 20,40 C15.4610918,40 11.2753276,38.4880114 7.91890107,35.9402277 C9.52147738,35.7300968 10.9534339,34.9778812 12.0246413,33.8737101 C14.372453,35.2262726 17.0958696,36 20,36 C23.1747393,36 26.1335176,35.0753617 28.621726,33.4806941 C29.5532508,34.5976081 30.826158,35.4198607 32.2801542,35.7871586 Z M39.4630409,24.6229316 C39.8141746,23.1390345 40,21.5912182 40,20 C40,10.8965527 33.9178449,3.21366957 25.5954428,0.793258794 C26.4772741,1.96433633 27,3.42112358 27,5 C27,5.20085145 26.9915408,5.39972715 26.9749593,5.59629028 C32.3169646,8.18793028 36,13.6638554 36,20 C36,20.762065 35.946723,21.5116864 35.8436905,22.2453429 C37.2903917,22.6392965 38.550624,23.4856083 39.4630409,24.6229316 Z M0.824383187,25.701362 C0.287989227,23.8945612 0,21.9809124 0,20 C0,10.8965527 6.08215507,3.21366957 14.4045572,0.793258794 C13.5227259,1.96433633 13,3.42112358 13,5 C13,5.20085145 13.0084592,5.39972715 13.0250407,5.59629028 C7.68303542,8.18793028 4,13.6638554 4,20 C4,20.8781444 4.07074368,21.7397658 4.20684279,22.5794758 C2.75877192,23.2103158 1.56553764,24.3166923 0.824383187,25.701362 Z M34,34 C36.7614237,34 39,31.7614237 39,29 C39,26.2385763 36.7614237,24 34,24 C31.2385763,24 29,26.2385763 29,29 C29,31.7614237 31.2385763,34 34,34 Z M7,34 C9.76142375,34 12,31.7614237 12,29 C12,26.2385763 9.76142375,24 7,24 C4.23857625,24 2,26.2385763 2,29 C2,31.7614237 4.23857625,34 7,34 Z M20,10 C22.7614237,10 25,7.76142375 25,5 C25,2.23857625 22.7614237,-1.11022302e-16 20,-1.11022302e-16 C17.2385763,-1.11022302e-16 15,2.23857625 15,5 C15,7.76142375 17.2385763,10 20,10 Z" id="icon-trust"></path>
            </g>
        </g>
    </g>
</svg>