<?xml version="1.0" encoding="UTF-8" standalone="no"?>
<svg width="40px" height="40px" viewBox="0 0 40 40" version="1.1" xmlns="http://www.w3.org/2000/svg" xmlns:xlink="http://www.w3.org/1999/xlink">
    <!-- Generator: Sketch 39 (31667) - http://www.bohemiancoding.com/sketch -->
    <title>icons/interface/user</title>
    <desc>Created with Sketch.</desc>
    <defs></defs>
    <g id="components" stroke="none" stroke-width="1" fill="none" fill-rule="evenodd">
        <g id="Iconography" transform="translate(-288.000000, -432.000000)" fill="#272721">
            <g id="icons/interface/user" transform="translate(288.000000, 432.000000)">
                <path d="M33.0188934,29.3031136 C34.8954964,26.6816493 36,23.46981 36,20 C36,11.1634436 28.8365564,4 20,4 C11.1634436,4 4,11.1634436 4,20 C4,23.4728822 5.10646034,26.6873367 6.98609313,29.3100754 C7.10047971,29.2318089 7.22801188,29.1423988 7.37018317,29.0385045 L7.24035262,29.1419107 C8.142519,28.3600318 9.36877162,27.8801933 10.8869948,27.6354179 C11.9245896,27.4575446 13.0495448,27.2883774 12.962575,27.1869127 L12.8810881,27.0853297 C10.8947311,24.436853 9.86452608,21.8041076 9.86452608,19.1985609 C9.86452608,16.3785464 10.8817166,13.9274853 12.8719611,11.9612206 C14.8544072,10.0026591 17.2876894,9 20.063087,9 C22.8384845,9 25.2717667,10.0026591 27.2542124,11.9612201 C29.2462911,13.929297 30.2616478,16.4004055 30.2616478,19.256706 C30.2616478,21.9801707 27.1067243,26.9057206 27.1067243,26.9057206 C27.1108679,26.9094875 27.2822476,27.0044412 27.5860013,27.1271109 C28.0056574,27.2965875 28.5809724,27.4812036 29.3067774,27.6759356 C31.0057604,28.1351201 32.0913763,28.550888 32.7672045,29.0915506 C32.8534368,29.1605365 32.937345,29.2310636 33.0188934,29.3031136 Z M20,40 C31.0456955,40 40,31.0456955 40,20 C40,8.95430446 31.0456955,-5.68434189e-14 20,-5.68434189e-14 C8.95430446,-5.68434189e-14 0,8.95430446 0,20 C0,31.0456955 8.95430446,40 20,40 Z M29.8285763,32.0267614 C30.1078415,32.133714 30.269033,32.2155127 30.2684237,32.2150253 C30.5766305,32.461591 25,36 21,36 C17,36 18.9996016,36 18.9996016,36 C15.0000002,36 9.24148669,32.6252413 9.73024698,32.2680709 L9.86007753,32.1646647 C10.1208273,31.9386811 10.6777129,31.7207691 11.5433863,31.5811448 C13.2387283,31.2906136 14.584713,30.7572989 15.5870205,29.922042 L15.8953018,29.7416685 L16.0115939,29.6253763 C16.0115939,29.6253763 16.2795483,29.4212067 16.5550335,28.9804293 C16.7594541,28.6533589 16.9114038,28.306046 17.0028305,27.9403439 L17.0392909,27.7593777 C17.2152684,26.6155102 16.8151696,25.5352434 15.9996014,24.5837472 L16.0810884,24.6853302 C14.5786963,22.6821401 13.8645261,20.857039 13.8645261,19.1985609 C13.8645261,17.4444365 14.4560368,16.0191096 15.6831944,14.8067376 C16.918151,13.5866598 18.3418741,13 20.063087,13 C21.7842998,13 23.2080229,13.5866598 24.4429791,14.8067372 C25.6683034,16.017298 26.2616478,17.4613408 26.2616478,19.256706 C26.2616478,21.029851 25.5521748,22.8587144 24.064915,24.7756284 L24.1754795,24.6450612 C23.3263013,25.5650033 22.8990283,26.6331851 23.0908385,27.7840607 L23.1233435,27.9403439 C23.3072228,28.6758519 23.7288354,29.3082714 24.3280751,29.8326071 L24.7506707,30.1163154 C24.7506707,30.1163154 26.3756415,31.0309896 28.2667016,31.5383479 C28.9197788,31.7148587 29.4441948,31.8795514 29.8285763,32.0267614 Z" id="user-copy"></path>
            </g>
        </g>
    </g>
</svg>