<?xml version="1.0" encoding="UTF-8" standalone="no"?>
<svg width="40px" height="40px" viewBox="0 0 40 40" version="1.1" xmlns="http://www.w3.org/2000/svg" xmlns:xlink="http://www.w3.org/1999/xlink">
    <!-- Generator: Sketch 39.1 (31720) - http://www.bohemiancoding.com/sketch -->
    <title>icons/interface/variation</title>
    <desc>Created with Sketch.</desc>
    <defs></defs>
    <g id="components" stroke="none" stroke-width="1" fill="none" fill-rule="evenodd">
        <g id="Iconography" transform="translate(-738.000000, -1421.000000)" fill="#2B2933">
            <g id="icons/interface/variation" transform="translate(738.000000, 1421.000000)">
                <path d="M6.14051749,28.0000045 C8.90699337,32.7824131 14.0777426,36 20,36 C28.8365564,36 36,28.8365564 36,20 C36,18.6188017 35.824988,17.2784797 35.4959301,16 L18,16 L18,12 L33.8594851,12 C31.0930066,7.21758693 25.9222574,4 20,4 C11.1634436,4 4,11.1634436 4,20 C4,21.3811983 4.17501199,22.7215203 4.50406988,24 L22,24 L22,28 L6.14051492,28 Z M20,40 C31.0456955,40 40,31.0456955 40,20 C40,8.95430446 31.0456955,0 20,0 C8.95430446,0 0,8.95430446 0,20 C0,31.0456955 8.95430446,40 20,40 Z M12.3431458,14 L18,19.6568542 L18,8.34314575 L12.3431458,14 Z M27.6568542,26 L22,20.3431458 L22,31.6568542 L27.6568542,26 Z" id="icon-traffic-/-activity"></path>
            </g>
        </g>
    </g>
</svg>