<svg width="40px" height="40px" viewBox="0 0 40 40" version="1.1" xmlns="http://www.w3.org/2000/svg" xmlns:xlink="http://www.w3.org/1999/xlink">
    <!-- Generator: Sketch 39 (31667) - http://www.bohemiancoding.com/sketch -->
    <title>icons/interface/view</title>
    <desc>Created with Sketch.</desc>
    <defs></defs>
    <g id="components" stroke="none" stroke-width="1" fill="none" fill-rule="evenodd">
        <g id="Iconography" transform="translate(-128.000000, -288.000000)" fill="#4A4A4A">
            <g id="icons/interface/view" transform="translate(128.000000, 288.000000)">
                <path d="M20,40 C31.0456955,40 40,31.0456955 40,20 C40,8.95430446 31.0456955,0 20,0 C8.95430446,0 0,8.95430446 0,20 C0,31.0456955 8.95430446,40 20,40 Z M20,36 C28.8365564,36 36,28.8365564 36,20 C36,11.1634436 28.8365564,4 20,4 C11.1634436,4 4,11.1634436 4,20 C4,28.8365564 11.1634436,36 20,36 Z M19.9995263,12 C14.0208294,12 8,20.0000686 8,20.0000686 C8,20.0000686 14.0208294,28 19.9995263,28 C25.9791149,28 32,20.0000686 32,20.0000686 C32,20.0000686 25.9791149,12 19.9995263,12 Z M19.9992732,24.5714286 C17.3488763,24.5714286 15.2,22.5266692 15.2,19.9990309 C15.2,17.4746045 17.3488763,15.4285714 19.9992732,15.4285714 C22.6511819,15.4285714 24.8,17.4746045 24.8,19.9990309 C24.8,22.5266692 22.6511819,24.5714286 19.9992732,24.5714286 L19.9992732,24.5714286 Z" id="icon-overview"></path>
            </g>
        </g>
    </g>
</svg>