<?xml version="1.0" encoding="UTF-8"?>
<svg width="80px" height="94px" viewBox="0 0 80 94" version="1.1" xmlns="http://www.w3.org/2000/svg" xmlns:xlink="http://www.w3.org/1999/xlink">
    <!-- Generator: Sketch 40.3 (33839) - http://www.bohemiancoding.com/sketch -->
    <title>object</title>
    <desc>Created with Sketch.</desc>
    <defs></defs>
    <g id="Page-1" stroke="none" stroke-width="1" fill="none" fill-rule="evenodd">
        <g id="object">
            <path d="M20,19 L21,18 L21,52 L20,51 L74,51 L73,52 L73,18 L74,19 L20,19 Z M74,18 L74,52 L20,52 L20,18 L74,18 Z" id="Rectangle-2" fill="#D1D1D1"></path>
            <path d="M20,65 L21,64 L21,88 L20,87 L74,87 L73,88 L73,64 L74,65 L20,65 Z M74,64 L74,88 L20,88 L20,64 L74,64 Z" id="Rectangle-2-Copy" fill="#D1D1D1"></path>
            <path d="M20,64 L74,64 L73,65 L73,51 L74,52 L20,52 L21,51 L21,65 L20,64 Z M20,65 L20,51 L74,51 L74,65 L20,65 Z" id="Rectangle-2-Copy" fill="#D1D1D1"></path>
            <path d="M23,22 L24,21 L24,29 L23,28 L71,28 L70,29 L70,21 L71,22 L23,22 Z M71,21 L71,29 L23,29 L23,21 L71,21 Z" id="Rectangle-3" fill="#D1D1D1"></path>
            <path d="M23,32 L24,31 L24,39 L23,38 L71,38 L70,39 L70,31 L71,32 L23,32 Z M71,31 L71,39 L23,39 L23,31 L71,31 Z" id="Rectangle-3-Copy" fill="#D1D1D1"></path>
            <path d="M23,42 L24,41 L24,49 L23,48 L71,48 L70,49 L70,41 L71,42 L23,42 Z M71,41 L71,49 L23,49 L23,41 L71,41 Z" id="Rectangle-3-Copy-5" fill="#D1D1D1"></path>
            <path d="M23,55 L24,54 L24,62 L23,61 L71,61 L70,62 L70,54 L71,55 L23,55 Z M71,54 L71,62 L23,62 L23,54 L71,54 Z" id="Rectangle-3-Copy-2" fill="#D1D1D1"></path>
            <path d="M23,68 L24,67 L24,75 L23,74 L71,74 L70,75 L70,67 L71,68 L23,68 Z M71,67 L71,75 L23,75 L23,67 L71,67 Z" id="Rectangle-3-Copy-3" fill="#D1D1D1"></path>
            <path d="M23,78 L24,77 L24,85 L23,84 L71,84 L70,85 L70,77 L71,78 L23,78 Z M71,77 L71,85 L23,85 L23,77 L71,77 Z" id="Rectangle-3-Copy-4" fill="#D1D1D1"></path>
            <path d="M0,0 L80,0 L80,94 L0,94 L0,0 Z M4,51 L14,51 L14,54 L4,54 L4,51 Z M4,30 L14,30 L14,33 L4,33 L4,30 Z M4,37 L14,37 L14,40 L4,40 L4,37 Z M4,44 L14,44 L14,47 L4,47 L4,44 Z M4,58 L14,58 L14,90 L4,90 L4,58 Z M18,16 L76,16 L76,90 L18,90 L18,16 Z M4,23 L14,23 L14,26 L4,26 L4,23 Z M4,16 L14,16 L14,19 L4,19 L4,16 Z M4,4 L76,4 L76,12 L4,12 L4,4 Z" id="featured" fill="#262621"></path>
        </g>
    </g>
</svg>