<?xml version="1.0" encoding="UTF-8"?>
<svg width="80px" height="94px" viewBox="0 0 80 94" version="1.1" xmlns="http://www.w3.org/2000/svg" xmlns:xlink="http://www.w3.org/1999/xlink">
    <!-- Generator: Sketch 40.3 (33839) - http://www.bohemiancoding.com/sketch -->
    <title>section</title>
    <desc>Created with Sketch.</desc>
    <defs></defs>
    <g id="Page-1" stroke="none" stroke-width="1" fill="none" fill-rule="evenodd">
        <g id="section">
            <path d="M0,0 L80,0 L80,94 L0,94 L0,0 Z M2,44 L13,44 L13,48 L2,48 L2,44 Z M2,26 L13,26 L13,30 L2,30 L2,26 Z M2,32 L13,32 L13,36 L2,36 L2,32 Z M2,38 L13,38 L13,42 L2,42 L2,38 Z M2,50 L13,50 L13,92 L2,92 L2,50 Z M15,14 L78,14 L78,92 L15,92 L15,14 Z M2,20 L13,20 L13,24 L2,24 L2,20 Z M2,14 L13,14 L13,18 L2,18 L2,14 Z M2,2 L78,2 L78,12 L2,12 L2,2 Z" id="featured-copy-2" fill="#D1D1D1"></path>
            <path d="M20,65 L21,64 L21,88 L20,87 L74,87 L73,88 L73,64 L74,65 L20,65 Z M74,64 L74,88 L20,88 L20,64 L74,64 Z" id="Rectangle-2-Copy" fill="#D1D1D1"></path>
            <path d="M20,64 L74,64 L73,65 L73,51 L74,52 L20,52 L21,51 L21,65 L20,64 Z M20,65 L20,51 L74,51 L74,65 L20,65 Z" id="Rectangle-2-Copy" fill="#D1D1D1"></path>
            <path d="M76,16 L76,54 L18,54 L18,16 L76,16 Z M22,20 L72,20 L72,50 L22,50 L22,20 Z" id="Combined-Shape" fill="#262621"></path>
            <path d="M23,22 L24,21 L24,29 L23,28 L71,28 L70,29 L70,21 L71,22 L23,22 Z M71,21 L71,29 L23,29 L23,21 L71,21 Z" id="Rectangle-3" fill="#D1D1D1"></path>
            <path d="M23,32 L24,31 L24,39 L23,38 L71,38 L70,39 L70,31 L71,32 L23,32 Z M71,31 L71,39 L23,39 L23,31 L71,31 Z" id="Rectangle-3-Copy" fill="#D1D1D1"></path>
            <path d="M23,42 L24,41 L24,49 L23,48 L71,48 L70,49 L70,41 L71,42 L23,42 Z M71,41 L71,49 L23,49 L23,41 L71,41 Z" id="Rectangle-3-Copy-5" fill="#D1D1D1"></path>
            <path d="M23,55 L24,54 L24,62 L23,61 L71,61 L70,62 L70,54 L71,55 L23,55 Z M71,54 L71,62 L23,62 L23,54 L71,54 Z" id="Rectangle-3-Copy-2" fill="#D1D1D1"></path>
            <path d="M23,68 L24,67 L24,75 L23,74 L71,74 L70,75 L70,67 L71,68 L23,68 Z M71,67 L71,75 L23,75 L23,67 L71,67 Z" id="Rectangle-3-Copy-3" fill="#D1D1D1"></path>
            <path d="M23,78 L24,77 L24,85 L23,84 L71,84 L70,85 L70,77 L71,78 L23,78 Z M71,77 L71,85 L23,85 L23,77 L71,77 Z" id="Rectangle-3-Copy-4" fill="#D1D1D1"></path>
        </g>
    </g>
</svg>